<?xml version="1.0" standalone="no"?>
<!DOCTYPE svg PUBLIC "-//W3C//DTD SVG 20010904//EN"
 "http://www.w3.org/TR/2001/REC-SVG-20010904/DTD/svg10.dtd">
<svg version="1.0" xmlns="http://www.w3.org/2000/svg"
 width="1080.000000pt" height="1083.000000pt" viewBox="0 0 1080.000000 1083.000000"
 preserveAspectRatio="xMidYMid meet">

<g transform="translate(0.000000,1083.000000) scale(0.100000,-0.100000)"
fill="#000000" stroke="none">
<path d="M10770 9070 c-14 -14 -28 -24 -31 -23 -4 1 -10 -8 -13 -21 -3 -14
-28 -48 -56 -77 -27 -29 -50 -57 -50 -63 -1 -15 -40 -57 -72 -78 -14 -10 -29
-31 -33 -48 -4 -16 -11 -30 -16 -30 -5 0 -9 -5 -9 -10 0 -6 -13 -24 -30 -40
-16 -16 -30 -33 -30 -38 0 -5 -12 -15 -26 -23 -14 -7 -39 -32 -54 -54 -16 -23
-57 -75 -92 -116 -34 -41 -72 -87 -83 -103 -11 -15 -35 -44 -52 -64 -18 -20
-33 -40 -33 -44 0 -5 -21 -29 -47 -56 -27 -26 -64 -67 -83 -91 -44 -55 -88
-107 -117 -139 -13 -14 -23 -29 -23 -33 0 -5 -7 -9 -15 -9 -8 0 -21 -15 -29
-32 -8 -18 -28 -47 -45 -65 -17 -18 -31 -34 -31 -37 0 -5 -9 -16 -55 -67 -8
-9 -15 -20 -15 -25 0 -5 -29 -40 -65 -77 -36 -37 -65 -72 -65 -78 0 -5 -4 -9
-10 -9 -5 0 -16 -12 -24 -27 -8 -16 -32 -46 -55 -68 -22 -22 -41 -45 -41 -52
0 -6 -15 -27 -32 -46 -64 -68 -98 -108 -98 -116 0 -4 -14 -23 -31 -42 -17 -19
-43 -52 -58 -74 -14 -22 -34 -49 -43 -59 -37 -41 -16 -48 40 -13 20 13 49 27
65 31 15 3 27 13 27 22 0 8 15 21 33 29 34 14 69 49 60 59 -3 3 2 9 12 12 11
5 22 1 30 -10 11 -15 13 -14 20 11 4 19 9 23 15 14 11 -18 23 19 14 43 -7 18
7 21 23 5 8 -8 16 -3 28 21 15 30 17 31 30 13 14 -17 14 -17 15 4 0 12 5 25
10 28 6 3 10 15 10 25 0 11 8 20 22 22 14 2 22 11 23 25 2 31 15 42 15 14 l0
-22 26 20 c14 11 32 17 40 14 10 -4 14 4 14 30 0 29 -4 36 -22 40 -22 4 -22 5
-3 11 16 6 21 17 22 47 1 23 -2 37 -8 34 -5 -4 -9 -1 -9 4 0 6 10 11 22 11 12
0 30 7 40 17 17 15 18 14 24 -15 7 -33 34 -35 34 -2 0 32 31 80 51 80 24 0 44
43 23 48 -18 5 -18 7 9 45 36 51 50 64 55 49 8 -26 22 -10 22 28 0 22 3 40 8
40 4 0 15 14 25 32 14 24 21 29 27 19 6 -11 12 -11 29 1 18 13 19 17 7 27 -8
6 -18 10 -22 9 -11 -4 -14 5 -14 33 0 14 5 19 15 16 8 -4 17 -2 21 4 3 6 12 8
19 5 19 -7 26 4 14 26 -7 14 -7 23 2 34 13 16 89 19 89 3 0 -20 22 4 37 39
l15 36 14 -24 c7 -14 13 -42 14 -62 0 -50 13 -48 27 2 8 32 8 40 -3 40 -16 0
-18 19 -4 40 8 12 10 12 10 -5 0 -11 12 -31 25 -44 14 -13 25 -27 25 -32 0 -4
6 -6 14 -3 8 3 12 12 9 20 -3 8 -9 12 -13 9 -4 -3 -10 10 -12 28 -3 17 -8 40
-13 50 -5 12 -3 17 9 17 9 0 28 13 43 28 25 25 34 28 76 24 38 -3 47 -1 47 12
0 9 8 16 20 16 17 0 20 7 20 40 0 57 27 55 33 -2 l4 -43 1 48 2 47 83 -2 82
-2 -67 -3 c-38 -2 -68 -8 -68 -13 0 -5 11 -17 25 -28 15 -12 25 -30 25 -46 0
-24 4 -26 40 -26 31 0 40 -4 40 -17 0 -13 3 -14 12 -5 9 9 9 15 0 24 -18 18
-15 28 8 28 15 0 20 -6 19 -22 -4 -41 1 -58 15 -58 9 0 12 8 8 26 -2 14 1 35
7 47 8 16 11 136 9 427 l-3 405 -25 -25z m-623 -872 c-3 -8 -6 -5 -6 6 -1 11
2 17 5 13 3 -3 4 -12 1 -19z m23 -67 c0 -14 -5 -18 -20 -14 -16 4 -18 8 -9 19
16 20 29 17 29 -5z m-75 -11 c3 -5 1 -10 -4 -10 -6 0 -11 5 -11 10 0 6 2 10 4
10 3 0 8 -4 11 -10z m-435 -675 c-14 -16 -40 -20 -40 -6 0 10 17 19 39 20 11
1 11 -2 1 -14z"/>
<path d="M3708 8963 c-10 -2 -15 -10 -11 -19 3 -8 0 -14 -6 -14 -6 0 -11 -7
-11 -15 0 -8 -4 -15 -10 -15 -5 0 -10 7 -10 15 0 8 -4 15 -10 15 -5 0 -10 -7
-10 -16 0 -29 20 -52 55 -64 19 -6 35 -16 35 -21 0 -20 20 -8 26 16 7 29 12
30 42 9 20 -14 24 -14 52 6 17 12 30 26 30 32 0 7 -16 27 -36 45 -30 27 -44
33 -78 32 -22 -1 -49 -3 -58 -6z"/>
<path d="M3740 8785 c0 -15 27 -28 41 -19 13 8 3 21 -21 27 -12 3 -20 0 -20
-8z"/>
<path d="M10716 8105 c4 -8 10 -12 15 -9 11 6 2 24 -11 24 -5 0 -7 -7 -4 -15z"/>
<path d="M5700 7985 c0 -3 15 -19 33 -35 29 -27 30 -31 15 -41 -11 -6 -18 -22
-18 -39 0 -27 -3 -30 -30 -30 -16 0 -30 5 -30 10 0 8 -52 9 -162 5 -203 -8
-224 -10 -273 -28 -50 -19 -56 -40 -13 -52 41 -13 47 -32 13 -45 -24 -9 -30
-7 -49 15 -22 25 -86 37 -86 15 0 -5 6 -10 14 -10 7 0 19 -7 26 -15 20 -24
-15 -46 -52 -33 -15 6 -28 14 -28 19 0 14 -27 10 -33 -5 -3 -7 -1 -18 5 -24 8
-8 6 -13 -8 -18 -10 -4 -26 -13 -35 -21 -10 -8 -31 -15 -48 -15 -17 -1 -28 -5
-25 -10 3 -4 -8 -11 -25 -14 -33 -7 -43 -24 -13 -24 9 0 34 4 55 9 41 10 57
-1 35 -23 -18 -18 -72 -30 -123 -27 -52 2 -69 -10 -63 -46 6 -41 -18 -60 -82
-69 -37 -5 -60 -14 -71 -28 -14 -17 -19 -18 -33 -7 -16 14 -78 8 -106 -9 -11
-7 -8 -10 13 -10 21 0 30 -7 38 -27 12 -32 1 -58 -24 -58 -9 0 -26 -10 -39
-21 -13 -12 -31 -24 -40 -27 -10 -4 -18 -13 -18 -22 0 -8 -6 -15 -14 -15 -13
0 -30 -12 -93 -67 -24 -21 -25 -24 -10 -47 15 -23 15 -25 -6 -39 -13 -8 -41
-13 -65 -12 -41 2 -42 2 -42 -31 0 -18 4 -35 9 -38 5 -3 7 -14 5 -24 -3 -11 3
-21 18 -27 18 -8 23 -17 22 -48 -1 -25 3 -37 12 -37 17 0 34 -32 34 -62 0 -14
-13 -37 -30 -53 -17 -16 -29 -34 -29 -39 5 -41 -4 -58 -41 -81 -44 -28 -47
-36 -25 -59 17 -17 20 -36 5 -36 -5 0 -10 5 -10 10 0 6 -9 10 -20 10 -18 0
-27 -22 -21 -54 1 -6 -2 -19 -8 -30 -6 -12 -11 -32 -13 -46 -2 -17 -10 -26
-25 -28 -17 -2 -23 -10 -23 -27 0 -13 5 -27 11 -31 6 -3 8 -17 4 -31 -7 -28 9
-53 34 -53 9 0 22 -9 29 -20 7 -12 8 -20 2 -20 -6 0 -10 -25 -9 -57 1 -32 3
-50 6 -40 3 10 10 16 16 14 8 -3 11 9 8 39 -3 41 9 58 24 34 4 -6 11 -8 16 -5
5 4 9 -4 9 -17 0 -23 20 -64 20 -42 0 6 9 21 20 34 11 13 20 34 20 48 0 14 7
30 17 37 10 7 16 25 15 46 -2 48 7 69 27 69 21 0 46 26 56 58 5 17 11 21 27
16 13 -4 18 -2 14 4 -10 17 9 22 45 12 18 -5 55 -11 82 -12 43 -1 51 2 72 28
19 23 20 31 10 37 -8 4 -12 14 -9 22 7 18 24 20 24 3 0 -18 102 -10 113 8 4 8
17 14 27 14 11 0 20 5 20 11 0 7 8 18 18 26 16 14 16 14 -4 10 -12 -3 -21 1
-21 8 0 10 7 11 24 4 37 -14 43 -11 43 17 0 20 4 24 19 19 10 -3 24 1 31 10
11 14 14 14 25 -2 7 -10 15 -27 18 -38 4 -13 5 -10 3 8 -3 26 -1 27 40 27 40
0 44 -2 44 -25 0 -16 6 -25 15 -25 11 0 15 11 15 40 0 37 2 40 27 40 l27 0
-22 20 c-18 17 -20 25 -12 40 6 11 15 20 20 20 5 0 7 8 5 18 -3 17 2 18 52 11
31 -4 60 -12 66 -18 20 -20 47 -11 78 24 36 41 66 53 82 32 15 -18 47 -30 47
-16 0 25 72 -65 77 -96 4 -26 11 -35 24 -35 11 0 19 -7 19 -15 0 -9 10 -20 23
-25 17 -7 26 -4 42 16 12 13 26 24 32 24 6 0 14 10 16 23 l4 22 2 -22 c1 -16
7 -23 21 -23 11 0 20 5 20 11 0 6 14 24 30 41 23 22 30 39 30 67 0 53 28 76
91 75 28 0 49 4 50 10 0 6 5 0 10 -14 7 -17 7 -26 -1 -28 -5 -2 -8 -8 -4 -13
7 -12 61 -12 69 1 3 6 0 10 -8 10 -13 0 -23 22 -33 68 -1 6 4 12 12 12 8 0 14
-7 14 -15 0 -9 7 -29 15 -45 8 -16 16 -41 17 -56 2 -15 11 -32 20 -38 10 -6
18 -16 18 -23 0 -7 7 -13 15 -13 11 0 15 -12 15 -47 l1 -48 19 24 c11 12 17
28 13 35 -3 6 -3 8 2 4 4 -4 16 3 26 15 15 19 21 20 38 9 17 -10 25 -10 41 0
11 7 20 19 20 25 0 11 4 11 20 1 16 -10 23 -9 43 10 l24 22 26 -25 c24 -24 26
-25 36 -8 8 14 11 15 11 3 0 -8 18 -26 40 -39 28 -17 36 -27 27 -33 -9 -6 -9
-8 1 -8 6 0 12 -6 12 -14 0 -8 7 -17 15 -20 9 -3 23 -20 31 -38 32 -67 39 -78
51 -78 8 0 13 -14 13 -40 0 -28 4 -40 14 -40 8 0 17 -6 20 -12 5 -10 7 -10 12
-1 4 9 14 2 31 -18 28 -33 46 -129 24 -129 -6 0 -11 -17 -11 -40 0 -33 3 -40
20 -40 18 0 20 -7 20 -69 0 -47 4 -70 13 -74 9 -3 12 -19 8 -53 -3 -27 -10
-47 -14 -44 -12 7 -36 -53 -26 -64 4 -5 3 -18 -3 -31 -8 -18 -5 -27 22 -56 34
-37 62 -84 54 -91 -9 -9 16 -59 26 -53 5 3 10 -1 10 -9 0 -9 7 -16 16 -16 8 0
13 -4 10 -8 -3 -5 6 -14 19 -20 14 -7 36 -17 50 -24 13 -6 22 -15 19 -20 -3
-4 4 -8 15 -8 18 0 21 -6 21 -40 0 -29 4 -40 15 -40 11 0 15 -11 15 -38 0 -21
4 -42 9 -48 5 -5 -2 -23 -15 -43 -23 -32 -24 -33 -24 -10 l-1 24 -18 -22 c-11
-13 -24 -23 -30 -23 -6 0 -13 -11 -17 -25 -6 -22 -11 -25 -54 -25 -27 0 -52
-5 -55 -10 -4 -6 -11 -8 -16 -5 -14 9 -50 -5 -43 -17 3 -5 -8 -3 -24 6 -32 16
-159 23 -134 7 19 -12 -12 -35 -39 -28 -15 4 -23 0 -26 -14 -3 -11 -11 -18
-17 -16 -6 2 -17 -2 -24 -10 -8 -7 -29 -13 -47 -11 -18 1 -45 -6 -61 -17 -18
-11 -49 -19 -80 -20 -42 -1 -59 -8 -93 -36 -28 -22 -41 -39 -38 -51 3 -11 -2
-20 -14 -23 -12 -4 -19 -16 -19 -32 0 -32 -21 -93 -32 -93 -4 0 -16 -20 -27
-45 -11 -26 -27 -45 -35 -45 -9 0 -16 -8 -16 -19 0 -11 -6 -22 -12 -24 -10 -4
-10 -6 0 -6 6 -1 12 -7 12 -15 0 -9 -7 -12 -18 -10 -25 7 -101 -71 -95 -97 3
-10 0 -19 -6 -19 -17 0 -41 -67 -41 -114 0 -23 -5 -47 -12 -54 -7 -7 -8 -12
-1 -12 17 0 19 -310 2 -342 -7 -14 -6 -23 6 -35 10 -10 13 -18 6 -22 -11 -7
-35 -146 -27 -159 3 -5 6 -90 7 -190 1 -153 -1 -185 -15 -206 -9 -14 -16 -34
-16 -44 0 -12 -11 -24 -30 -32 -16 -7 -30 -16 -30 -21 0 -4 -16 -13 -35 -20
-19 -7 -35 -18 -35 -25 0 -18 -68 -22 -140 -7 -93 19 -91 18 -98 30 -8 13
-142 5 -142 -9 0 -5 -4 -6 -10 -3 -15 9 -12 -2 8 -26 57 -71 58 -72 80 -65 12
4 22 14 22 22 0 23 73 18 95 -6 10 -11 24 -20 31 -20 7 0 14 -6 17 -12 3 -10
7 -10 19 -1 12 10 22 9 53 -7 22 -11 50 -20 63 -20 27 0 102 -39 102 -53 0 -5
9 -7 20 -4 12 3 18 1 14 -5 -4 -6 1 -8 15 -3 13 4 27 1 37 -10 9 -9 29 -19 45
-22 22 -4 29 -11 29 -29 0 -24 23 -33 35 -14 4 6 12 9 18 8 27 -5 106 60 107
89 0 7 6 10 14 7 10 -4 16 6 21 35 7 42 13 49 32 30 12 -12 28 116 18 143 -4
9 -2 19 3 22 6 3 8 15 5 26 -4 13 1 22 13 27 14 6 19 19 19 48 0 22 -2 42 -5
45 -3 3 -11 16 -18 30 -7 14 -20 37 -28 52 -8 15 -22 56 -31 92 -10 41 -21 66
-29 66 -19 0 -18 24 1 40 18 15 20 40 3 40 -6 0 -4 7 5 18 19 21 23 67 6 78
-6 3 -9 15 -6 25 3 11 -1 26 -10 34 -8 8 -11 20 -7 26 4 8 3 9 -5 5 -7 -5 -13
4 -17 24 -6 28 -11 31 -38 30 -50 -3 -68 -1 -62 8 3 5 -5 15 -18 22 -13 7 -26
23 -29 36 -2 13 -1 21 3 19 5 -3 10 2 14 10 3 8 0 15 -7 16 -7 0 -2 4 11 9 22
9 31 40 11 40 -5 0 -7 5 -3 11 4 8 9 7 15 -2 4 -7 11 -10 15 -6 4 3 1 13 -6
22 -16 20 6 79 26 71 15 -6 18 16 14 91 -3 69 4 79 53 79 54 -1 67 -10 67 -47
0 -31 10 -35 40 -19 12 7 36 7 67 1 26 -5 69 -12 95 -15 45 -5 47 -5 39 17 -5
14 -21 25 -45 30 -26 7 -36 14 -36 28 0 23 4 23 35 3 24 -16 25 -15 25 4 0 31
21 72 37 72 7 0 13 4 13 8 0 5 11 14 25 20 23 10 25 9 26 -11 1 -12 1 -27 0
-33 -1 -6 6 -17 14 -24 8 -7 15 -18 15 -25 0 -22 68 -82 100 -89 53 -10 113
-7 140 9 14 8 32 17 40 21 8 4 23 16 33 28 l19 21 -6 -26 c-7 -30 8 -40 46
-33 12 2 17 2 11 -2 -7 -3 -13 -12 -13 -21 0 -15 -30 -50 -39 -45 -3 2 -7 -1
-9 -7 -2 -6 4 -11 12 -11 23 0 34 -37 29 -95 -4 -37 -1 -54 9 -63 21 -17 73
-18 92 -3 14 12 16 11 16 -8 0 -18 6 -21 40 -21 23 0 40 5 40 11 0 8 15 9 45
4 27 -4 60 -2 81 5 28 10 41 10 60 0 13 -7 21 -17 18 -22 -7 -11 16 -81 29
-90 7 -4 5 -21 -6 -50 -9 -24 -17 -65 -17 -91 0 -40 -4 -49 -23 -56 -12 -5
-29 -22 -36 -37 -7 -16 -20 -41 -27 -55 -7 -14 -11 -28 -9 -31 11 -10 -18 -68
-33 -69 -11 0 -12 -2 -4 -6 18 -7 15 -16 -18 -73 -16 -28 -30 -60 -30 -70 0
-11 -14 -35 -30 -54 -19 -21 -28 -40 -24 -50 3 -9 1 -23 -6 -31 -15 -18 -50
-20 -50 -3 0 7 -3 8 -9 3 -9 -10 -28 -86 -35 -140 -2 -16 -10 -43 -17 -60 -9
-23 -13 -26 -16 -12 -3 9 -9 17 -14 17 -12 0 -41 -71 -35 -86 6 -16 -15 -84
-26 -84 -5 0 -8 -26 -7 -57 2 -35 -2 -58 -9 -61 -38 -12 -52 -38 -51 -92 1
-138 -2 -159 -26 -196 -16 -25 -19 -26 -30 -11 -7 9 -20 17 -29 17 -15 0 -19
15 -19 74 1 10 -15 34 -35 53 -27 26 -37 31 -44 21 -8 -10 -11 -10 -15 0 -2 6
-13 12 -23 12 -10 0 -24 14 -33 33 -20 41 -51 67 -79 67 -13 0 -32 0 -43 1
-11 0 -32 -1 -48 -4 -15 -2 -30 0 -33 4 -10 16 -20 9 -31 -22 -10 -27 -15 -30
-27 -20 -8 7 -12 19 -9 27 3 8 -1 14 -8 15 -8 1 -23 2 -34 3 -15 1 -20 7 -18
29 1 20 -3 27 -17 27 -10 0 -22 -5 -25 -10 -5 -8 -11 -8 -20 0 -7 6 -17 10
-21 9 -26 -4 -42 3 -47 21 -6 25 -29 34 -62 26 -40 -10 -28 -29 28 -42 4 -1
10 -2 15 -3 4 -1 -3 -6 -15 -11 -24 -10 -32 -40 -10 -40 7 0 18 -14 24 -30 11
-29 10 -30 -18 -30 -19 0 -29 5 -29 15 0 19 -14 19 -34 0 -8 -8 -23 -15 -33
-15 -31 0 -42 -18 -32 -52 10 -37 3 -53 -17 -37 -10 8 -13 22 -9 39 4 20 2 29
-10 34 -23 9 -35 -1 -35 -29 0 -31 -10 -36 -50 -25 -23 7 -38 6 -47 -1 -8 -7
-23 -8 -40 -3 -16 4 -33 8 -40 9 -7 0 -22 11 -33 23 -25 27 -53 25 -59 -3 -5
-28 -23 -36 -37 -17 -10 14 -14 14 -29 2 -13 -11 -18 -11 -24 -1 -5 7 -27 15
-49 18 -38 5 -41 3 -48 -21 -7 -30 -24 -35 -24 -8 0 10 -4 22 -9 27 -5 6 -11
26 -13 45 -2 26 -8 36 -23 38 -20 3 -20 3 -1 -12 23 -19 21 -21 -23 -31 -24
-5 -32 -4 -26 4 4 7 2 18 -4 25 -9 10 -8 15 4 20 19 7 20 26 1 26 -8 0 -16 5
-18 10 -2 6 -19 11 -38 13 -19 1 -38 7 -42 12 -4 6 -8 2 -8 -8 0 -19 -44 -62
-64 -62 -11 0 -26 -11 -67 -48 -25 -23 -39 -22 -39 4 0 16 -4 19 -20 14 -22
-7 -26 5 -8 23 9 9 7 12 -10 12 -12 0 -22 -4 -22 -9 0 -5 -9 -7 -20 -4 -19 5
-50 -17 -50 -35 0 -5 -14 -15 -30 -22 -30 -12 -31 -14 -24 -59 7 -50 26 -78
61 -92 15 -6 21 -14 17 -24 -4 -9 3 -26 16 -40 12 -13 19 -28 15 -34 -3 -7 2
-11 14 -11 11 0 23 5 27 11 3 6 17 9 30 6 13 -2 24 -1 24 3 0 4 8 11 17 14 17
7 63 -32 63 -53 0 -5 3 -11 8 -13 4 -1 17 -24 30 -50 13 -26 27 -50 31 -52 4
-3 8 -21 9 -41 1 -20 9 -43 17 -52 9 -8 23 -33 32 -54 8 -22 21 -39 28 -39 6
0 20 -9 30 -20 10 -11 26 -20 37 -20 10 0 18 -4 18 -8 0 -4 12 -9 26 -10 15
-1 32 -6 39 -12 22 -18 289 -59 394 -59 93 -1 188 -27 222 -62 15 -15 30 -25
33 -22 3 4 6 1 6 -5 0 -21 -60 -76 -98 -89 -20 -7 -61 -13 -89 -13 -39 0 -53
-4 -53 -14 0 -8 -7 -17 -16 -20 -10 -4 -13 -13 -9 -26 6 -18 2 -20 -42 -20
-26 1 -66 7 -88 15 -50 18 -55 18 -55 0 0 -9 -9 -15 -25 -15 -25 0 -35 -5 -73
-40 -10 -8 -26 -14 -36 -12 -11 3 -26 -4 -33 -14 -10 -13 -16 -15 -21 -7 -5 9
-138 43 -167 43 -3 0 -5 8 -5 19 0 10 -11 26 -24 34 -14 10 -28 33 -34 60 -8
29 -26 58 -52 84 -22 23 -40 50 -40 62 0 31 -57 85 -110 106 -39 15 -73 43
-117 99 -15 17 -18 60 -4 52 4 -3 16 3 26 14 17 19 17 21 0 40 -10 11 -22 17
-27 14 -4 -3 -8 -2 -7 3 1 4 1 17 0 27 -1 18 -2 18 -20 2 -18 -17 -20 -16 -32
18 -7 20 -18 36 -24 36 -12 1 -47 68 -40 80 6 10 -23 35 -31 27 -4 -3 -20 7
-38 23 -17 17 -36 30 -42 30 -10 0 -74 128 -74 149 0 6 -6 11 -14 11 -19 0
-33 -23 -18 -28 7 -2 12 -8 12 -13 0 -6 -9 -5 -21 1 -12 7 -18 18 -15 26 3 8
1 14 -4 14 -13 0 -13 77 0 85 6 3 10 20 10 37 0 21 -6 31 -19 35 -26 7 -15 33
12 30 18 -2 22 3 20 26 -1 15 3 27 9 27 6 0 4 8 -5 18 -23 25 -21 31 8 42 18
7 23 14 18 27 -4 10 -8 12 -11 5 -6 -19 -30 -14 -42 8 -7 13 -7 26 -1 38 13
25 -4 51 -29 45 -12 -3 -20 0 -20 6 0 7 -4 9 -10 6 -5 -3 -10 3 -10 14 0 11
-8 25 -17 31 -15 8 -12 9 10 4 25 -6 28 -4 25 12 -2 12 -11 18 -22 16 -13 -2
-17 2 -15 20 2 13 -4 34 -14 48 -9 13 -17 35 -17 47 0 18 -7 25 -29 29 -30 6
-31 7 -52 129 -22 132 -30 181 -32 197 -1 12 -5 14 -11 8 -14 -14 -59 -12 -80
3 -26 19 -17 51 16 55 47 6 59 79 17 109 -10 8 -18 31 -21 64 -3 28 -10 54
-15 58 -5 3 -11 26 -11 51 -2 50 -19 100 -34 100 -6 0 -8 9 -5 21 3 12 2 32
-3 45 -6 15 -6 24 0 24 6 0 10 11 10 25 0 26 -15 34 -23 13 -3 -8 -6 -7 -6 4
-1 11 -9 16 -22 15 -20 -1 -20 -5 -13 -109 3 -59 4 -108 1 -108 -21 0 -45 357
-26 392 15 27 21 338 8 355 -7 8 -8 18 -2 26 16 20 15 139 -1 192 -9 28 -16
70 -16 95 -1 25 -5 65 -11 90 -6 25 -12 80 -14 124 -1 43 -9 89 -16 102 -9 18
-10 30 -1 49 10 21 9 27 -3 31 -11 5 -15 21 -15 60 0 47 -3 56 -23 63 -12 5
-172 9 -355 10 l-332 2 -1 -43 c-5 -338 -20 -890 -29 -1023 -10 -164 -74 -989
-105 -1360 -19 -228 -41 -567 -55 -850 -6 -121 -13 -229 -16 -240 -2 -11 -26
-44 -52 -72 -38 -43 -57 -55 -100 -67 -67 -17 -67 -17 -58 112 16 247 46 751
46 790 l0 42 -274 0 -273 0 -7 -66 c-4 -36 -9 -249 -12 -474 l-5 -409 28 -3
c25 -3 28 -7 28 -38 0 -31 -3 -35 -25 -35 -24 0 -25 -2 -30 -85 -4 -68 -8 -85
-21 -88 -22 -4 -32 24 -17 48 8 13 9 22 1 32 -5 7 -11 75 -12 153 -1 77 -7
259 -12 405 -6 146 -11 272 -11 280 0 8 -4 83 -9 165 -5 83 -11 204 -14 270
-9 232 -21 425 -28 431 -10 10 -13 -6 -37 -161 -12 -77 -25 -160 -30 -185 -5
-25 -11 -81 -15 -125 -6 -83 -36 -449 -56 -665 -31 -350 -24 -455 42 -618 16
-41 29 -75 29 -77 0 -2 -22 -11 -49 -19 -27 -8 -62 -21 -79 -30 -17 -9 -35
-16 -39 -16 -5 0 -9 41 -8 92 0 62 -4 93 -12 95 -7 3 -9 11 -6 19 3 8 -1 14
-11 14 -12 0 -15 -8 -12 -31 2 -17 -3 -44 -11 -61 -11 -22 -14 -52 -11 -114 2
-46 2 -84 -1 -84 -3 0 -22 -16 -42 -34 -34 -32 -97 -66 -123 -66 -16 0 -10
139 15 345 19 154 24 207 33 385 3 70 34 331 46 390 4 25 9 69 10 99 1 30 3
58 6 63 3 5 9 59 15 121 5 61 11 126 14 142 3 17 8 89 10 162 2 73 6 136 9
141 3 5 8 47 11 93 4 46 8 102 11 124 2 22 6 81 9 130 8 116 8 124 38 360 14
110 28 236 32 280 3 44 10 116 15 160 19 149 40 405 40 476 0 44 4 68 10 64 5
-3 10 -1 10 4 0 6 -4 11 -10 11 -5 0 -10 8 -10 18 0 15 2 15 11 2 8 -12 10 -8
6 17 -2 18 1 35 7 37 7 3 6 8 -3 14 -8 6 -9 11 -3 13 11 4 21 86 26 219 4 115
24 384 31 412 3 13 12 116 20 230 8 114 17 235 20 270 5 60 4 61 -9 33 -12
-27 -69 -399 -126 -825 -22 -168 -30 -224 -36 -255 -2 -11 -6 -40 -9 -65 -6
-57 -14 -134 -21 -185 -7 -50 -11 -91 -19 -180 -3 -38 -10 -92 -15 -120 -5
-27 -14 -97 -20 -155 -14 -146 -19 -186 -30 -260 -5 -36 -14 -112 -20 -170
-11 -112 -23 -141 -40 -96 -16 42 -13 96 5 96 12 0 15 13 14 58 0 41 -3 51 -9
37 -5 -12 -6 18 -3 75 3 52 9 102 13 110 4 8 8 44 8 80 1 36 6 106 12 155 5
50 17 171 25 270 9 99 18 205 21 235 2 30 9 100 14 155 5 55 18 195 29 310 11
116 30 314 41 440 11 127 22 247 25 268 3 20 1 37 -4 37 -8 0 -22 -69 -52
-255 -6 -38 -17 -106 -25 -150 -8 -44 -16 -91 -18 -105 -1 -14 -4 -31 -4 -37
-1 -7 -6 -13 -12 -13 -5 0 -7 8 -3 18 3 9 2 13 -3 9 -4 -4 -12 -38 -16 -75 -7
-66 -22 -193 -52 -422 -9 -63 -18 -135 -20 -160 -11 -97 -27 -228 -36 -290 -5
-36 -14 -119 -20 -185 -12 -122 -26 -189 -39 -181 -4 3 -3 38 1 78 19 174 89
857 103 1003 8 88 20 205 25 260 20 192 26 286 19 290 -8 5 -19 -55 -19 -103
0 -21 -4 -31 -11 -27 -7 5 -9 -3 -8 -21 6 -49 -11 -124 -27 -124 -8 0 -14 -4
-14 -10 0 -5 5 -10 10 -10 6 0 10 -9 10 -20 0 -12 -5 -17 -14 -14 -14 5 -25
-51 -31 -161 -8 -128 -68 -482 -81 -475 -5 3 -8 12 -7 20 1 8 5 62 8 120 8
124 9 133 30 360 57 624 64 743 44 755 -6 4 -12 5 -15 3 -7 -7 -74 -338 -74
-364 0 -13 -4 -24 -8 -24 -5 0 -8 -15 -8 -32 0 -32 -30 -197 -42 -228 -3 -8
-4 -22 -3 -30 2 -8 0 -12 -4 -8 -12 11 -13 69 -4 148 32 260 59 643 44 629 -7
-8 -40 -206 -91 -549 -8 -58 -20 -127 -25 -155 -9 -43 -13 -73 -18 -132 0 -7
-6 -13 -12 -13 -8 0 -10 44 -4 163 4 89 9 214 10 277 2 63 6 164 10 224 3 61
3 108 1 105 -3 -2 -19 -130 -36 -284 -17 -154 -42 -359 -55 -455 -14 -96 -28
-200 -31 -230 -3 -30 -11 -75 -16 -100 -5 -25 -11 -61 -13 -80 -1 -19 -3 -39
-5 -45 -4 -16 -6 -27 -14 -81 -7 -43 -11 -51 -26 -47 -20 5 -40 -41 -41 -93
-1 -79 -6 -115 -17 -126 -15 -15 -16 26 -3 122 12 86 24 210 23 235 -1 10 2
24 7 30 4 5 8 31 9 58 1 26 8 107 17 180 8 72 22 200 30 282 9 83 20 193 26
245 23 224 39 397 38 425 l-1 30 -9 -30 c-13 -44 -77 -380 -84 -445 -4 -30
-12 -73 -17 -95 -13 -51 -37 -186 -44 -245 -2 -24 -9 -47 -13 -50 -5 -3 -9
-16 -9 -30 -1 -65 -15 -130 -28 -130 -17 0 -18 -17 -1 -23 9 -3 9 -7 -1 -19
-7 -9 -10 -23 -6 -32 4 -11 1 -16 -11 -16 -13 0 -16 -6 -13 -25 3 -13 1 -26
-4 -27 -5 -2 -10 -29 -11 -61 -1 -31 -5 -57 -9 -57 -13 0 -9 -28 5 -33 9 -4 9
-6 -1 -6 -17 -1 -35 -47 -37 -96 -1 -23 -5 -46 -8 -53 -4 -6 -5 -23 -1 -37 3
-14 2 -25 -3 -25 -6 0 -13 -28 -16 -62 -3 -35 -13 -90 -22 -123 -20 -75 -45
-212 -51 -285 -6 -71 -12 -89 -23 -71 -4 7 -2 47 5 89 8 42 25 158 39 257 25
173 37 253 85 560 12 77 26 167 30 200 5 33 14 92 20 130 6 39 15 95 20 125
22 139 69 479 72 519 1 26 -2 46 -9 48 -11 4 -32 -79 -53 -212 -13 -83 -28
-125 -45 -125 -22 0 -42 -35 -43 -78 0 -24 -6 -50 -12 -57 -6 -8 -12 -39 -13
-69 -1 -31 -4 -56 -8 -56 -3 0 -9 -21 -12 -47 -10 -85 -47 -348 -52 -363 -2
-8 -11 -82 -20 -165 -9 -82 -19 -157 -22 -165 -4 -8 -7 -18 -8 -22 -2 -5 -4
-9 -5 -10 -1 -2 -4 -34 -6 -73 -2 -38 -10 -90 -17 -115 l-15 -45 5 60 c2 33 9
98 15 145 6 47 12 103 13 125 2 22 13 132 25 244 11 112 19 210 16 217 -3 7
-1 16 4 19 14 9 7 342 -8 357 -6 6 -12 18 -12 26 0 7 -7 21 -16 30 -15 15 -16
14 -9 -7 6 -20 4 -23 -9 -18 -21 8 -36 -28 -36 -83 0 -21 -4 -41 -9 -44 -4 -3
-11 -25 -15 -48 -16 -109 -22 -144 -29 -154 -3 -6 -9 -26 -11 -45 -3 -19 -12
-59 -20 -89 -12 -46 -15 -51 -21 -32 -4 12 -12 22 -17 22 -6 0 -7 11 -4 25 4
14 2 25 -3 25 -5 0 -13 -21 -16 -47 -3 -27 -8 -61 -11 -78 -3 -16 -13 -89 -23
-161 -10 -72 -22 -137 -26 -144 -4 -7 -9 -33 -12 -58 -2 -25 -9 -52 -14 -59
-6 -7 -8 -17 -4 -23 3 -5 1 -10 -4 -10 -6 0 -11 2 -11 4 0 19 41 384 45 396 4
15 17 206 20 287 0 23 3 44 6 47 7 7 2 268 -6 306 -5 22 -10 29 -15 19 -7 -10
-11 -10 -24 0 -14 12 -17 9 -22 -18 -4 -17 -12 -31 -20 -31 -14 0 -20 -14 -29
-80 -4 -25 -13 -69 -22 -97 -8 -29 -12 -57 -8 -63 3 -5 2 -10 -3 -10 -9 0 -15
-16 -27 -70 -2 -8 -11 -41 -19 -73 -9 -32 -16 -69 -16 -82 0 -13 -5 -36 -12
-52 -6 -15 -10 -34 -9 -41 1 -8 -2 -19 -7 -25 -6 -7 -13 -30 -17 -52 -4 -22
-11 -47 -16 -55 -6 -12 -9 -12 -15 5 -4 11 -14 28 -22 38 -10 12 -11 17 -3 17
7 0 9 5 6 10 -11 18 -25 10 -25 -14 0 -14 -4 -28 -10 -31 -5 -3 -10 -15 -10
-26 0 -10 -3 -19 -8 -19 -4 0 -5 28 -1 63 31 297 39 411 29 421 -8 8 -10 7 -5
-4 8 -23 -17 -52 -38 -45 -13 6 -16 20 -16 73 2 135 -1 182 -12 182 -6 0 -8
-7 -5 -16 5 -13 2 -15 -14 -11 -17 4 -23 -5 -45 -77 -14 -45 -25 -90 -25 -100
0 -22 -18 -93 -32 -121 -5 -12 -10 -27 -11 -35 -4 -27 -22 -22 -31 9 -9 32
-20 39 -31 21 -11 -17 -25 -11 -25 11 0 15 5 19 18 15 9 -3 24 -1 32 4 11 7 6
10 -22 10 -31 0 -35 3 -31 20 7 26 -5 90 -17 90 -6 0 -10 -1083 -10 -2910 l0
-2910 2286 0 c2031 0 2284 2 2270 15 -8 8 -19 15 -25 15 -6 0 -13 11 -17 24
-3 14 -17 32 -30 41 -13 8 -24 22 -24 30 0 8 -9 24 -20 35 -12 12 -18 25 -15
30 4 6 0 10 -7 10 -8 0 -19 12 -25 27 -15 33 -32 60 -55 84 -10 10 -24 33 -31
52 -8 18 -20 39 -28 47 -17 18 -102 190 -102 208 0 6 -3 12 -7 12 -10 0 -27
64 -46 170 -9 52 -18 98 -20 102 -2 3 2 8 8 11 10 4 11 7 1 18 -7 7 -13 18
-13 23 0 6 5 4 11 -4 8 -12 9 -7 6 17 -3 27 0 33 15 33 12 0 16 -4 12 -12 -4
-6 -3 -8 4 -4 10 6 84 -31 90 -46 2 -4 10 -8 17 -8 8 0 20 -8 27 -17 7 -10 36
-29 63 -42 28 -12 58 -27 67 -32 10 -5 29 -9 42 -9 15 0 25 -7 29 -19 4 -16
17 -19 98 -23 l94 -4 34 35 c47 51 86 174 122 388 9 56 15 70 27 66 11 -5 13
-1 7 15 -7 24 13 91 32 107 6 6 13 19 15 30 3 23 22 45 37 45 6 0 11 19 11 42
0 42 7 48 13 11 4 -29 26 -53 48 -53 13 0 19 -9 21 -37 3 -35 6 -38 37 -41 33
-3 80 -43 81 -69 0 -7 7 -13 15 -13 9 0 20 -10 25 -22 4 -13 29 -48 54 -78 29
-34 41 -56 33 -58 -15 -3 -11 -68 7 -90 27 -33 44 -50 57 -54 10 -4 8 -11 -10
-27 -23 -20 -25 -20 -43 -5 -17 16 -18 16 -18 0 0 -9 7 -28 16 -41 13 -21 14
-25 2 -25 -18 0 -46 -72 -29 -78 6 -2 11 -15 11 -28 0 -21 4 -24 39 -24 22 0
43 5 46 10 4 6 29 10 56 9 27 -1 52 0 55 4 7 7 44 -29 44 -44 0 -8 5 -7 15 1
12 10 19 10 27 2 7 -7 24 -12 39 -12 15 0 32 -7 39 -15 7 -8 19 -15 26 -15 8
0 14 -9 14 -19 0 -11 14 -28 34 -40 43 -27 46 -27 46 7 0 49 36 71 42 25 l3
-27 15 28 c11 21 11 29 2 35 -9 5 -9 17 2 52 8 24 14 38 15 31 1 -7 6 -10 11
-7 17 11 11 25 -11 25 -17 0 -19 3 -10 14 6 7 22 11 36 8 21 -4 28 1 37 25 9
23 21 32 55 41 61 17 81 15 88 -8 8 -25 -15 -80 -32 -80 -8 0 -13 -15 -13 -40
0 -29 4 -40 15 -40 20 0 21 -85 1 -93 -9 -4 -13 -17 -11 -39 2 -18 4 -50 4
-70 l1 -38 78 6 c54 3 83 1 98 -8 12 -7 49 -28 83 -46 53 -28 61 -36 55 -54
-4 -15 -3 -18 6 -13 7 4 16 2 21 -6 6 -11 11 -11 21 -1 17 17 38 15 38 -4 0
-8 -4 -12 -10 -9 -5 3 -10 -2 -10 -13 0 -23 -46 -76 -59 -68 -5 4 -7 -2 -4
-12 2 -10 -3 -24 -11 -31 -9 -8 -16 -19 -16 -26 0 -8 -3 -15 -8 -17 -4 -1 -33
-38 -65 -81 -32 -43 -71 -89 -85 -102 l-27 -25 2049 0 2049 0 -48 43 c-118
104 -255 248 -255 268 0 8 6 7 18 -3 9 -9 28 -21 41 -28 l24 -12 -7 48 c-18
120 -12 200 9 114 l11 -45 103 -9 c59 -5 106 -5 112 1 4 4 10 45 12 89 4 67
10 90 36 137 17 31 31 62 31 70 0 8 7 20 15 27 8 7 15 25 15 40 0 28 2 29 67
36 67 7 309 -1 371 -12 l32 -6 0 1916 0 1916 -120 0 -120 0 0 30 c0 37 -10 38
-41 2 -21 -25 -29 -28 -71 -24 -27 2 -48 8 -48 13 0 5 -18 9 -40 9 -33 0 -40
3 -40 20 0 10 -18 38 -40 60 -22 22 -40 49 -40 58 -1 9 -19 31 -40 47 -21 17
-39 36 -40 43 0 7 -15 12 -40 12 -22 0 -40 5 -40 10 0 6 -18 10 -40 10 -54 0
-56 27 -2 33 20 2 13 3 -15 1 l-53 -3 -1 42 c-1 23 -1 45 -1 48 1 3 -10 12
-23 19 -14 7 -25 22 -25 32 0 15 -8 18 -55 18 l-55 0 0 40 c0 22 -4 40 -10 40
-5 0 -10 18 -10 40 0 36 3 40 25 40 23 0 25 4 25 40 0 36 -2 40 -26 40 -14 0
-32 7 -40 15 -9 8 -33 15 -55 15 -35 0 -39 3 -39 24 0 13 6 26 12 28 9 3 8 9
-5 22 -9 10 -17 14 -17 9 -1 -4 -3 -32 -6 -60 -4 -40 -2 -53 8 -53 7 -1 1 -8
-14 -16 -31 -16 -35 -35 -13 -58 8 -8 15 -31 15 -50 0 -20 5 -36 10 -36 6 0
10 -33 10 -80 0 -64 -3 -80 -15 -80 -11 0 -15 -11 -15 -40 0 -38 -2 -40 -29
-40 -20 0 -41 11 -65 35 -40 38 -43 45 -21 45 11 0 15 11 15 40 l0 40 -40 0
-40 0 0 40 c0 29 -4 40 -15 40 -11 0 -15 11 -15 40 0 29 -4 40 -15 40 -11 0
-15 11 -15 40 0 33 3 40 20 40 18 0 20 7 20 80 l0 80 -45 0 c-27 0 -45 -5 -45
-11 0 -8 -4 -8 -15 1 -8 6 -18 9 -24 6 -12 -8 -41 3 -41 15 0 5 18 9 40 9 33
0 40 3 40 20 0 17 -7 20 -44 20 l-45 0 4 60 c3 42 1 59 -8 57 -11 -2 -19 36
-43 198 -3 22 -12 54 -19 70 -7 17 -17 48 -20 70 -4 22 -12 45 -17 52 -5 7 -7
17 -3 23 3 5 -5 14 -19 20 -22 8 -25 14 -20 39 4 16 0 43 -9 62 -8 19 -22 79
-31 134 -23 150 -52 261 -73 283 -7 7 -13 18 -13 23 0 5 -5 9 -10 9 -6 0 -10
-18 -8 -41 1 -24 -3 -43 -11 -48 -7 -5 -12 -29 -13 -59 0 -29 -4 -52 -9 -52
-5 0 -9 -16 -9 -35 0 -20 -9 -53 -19 -74 -17 -33 -19 -57 -18 -204 1 -92 -1
-167 -5 -167 -5 0 -8 -7 -8 -16 0 -8 -5 -12 -11 -8 -15 9 -51 92 -45 103 8 12
-51 64 -66 59 -19 -8 -36 -102 -32 -183 3 -80 -3 -128 -17 -119 -5 3 -7 10 -3
15 6 11 -17 69 -28 69 -3 0 -9 15 -13 33 -4 17 -13 46 -20 62 -22 55 -35 101
-35 129 0 15 -5 36 -11 47 -5 11 -17 59 -25 107 -24 143 -44 210 -63 208 -25
-2 -28 -12 -29 -93 0 -41 -5 -80 -11 -86 -8 -8 -11 -3 -11 19 0 16 -7 62 -17
102 -12 52 -21 71 -31 70 -9 -2 -19 10 -26 29 -28 81 -30 29 -5 -165 5 -41 6
-79 2 -84 -11 -19 -33 23 -35 66 l-1 41 -6 -48 c-7 -59 -23 -62 -34 -5 -5 24
-17 82 -28 129 -10 48 -19 98 -19 112 0 14 -4 28 -8 31 -17 10 -21 -236 -7
-389 20 -205 28 -306 27 -330 0 -11 4 -40 9 -65 5 -25 11 -74 14 -110 22 -292
44 -469 76 -633 5 -26 9 -68 9 -92 0 -25 3 -45 8 -45 4 0 8 -40 10 -89 2 -50
7 -105 13 -123 5 -18 18 -114 29 -213 11 -99 25 -214 30 -255 35 -270 35 -283
31 -679 -1 -108 -3 -122 -16 -111 -8 7 -15 21 -15 31 0 11 -7 19 -15 19 -11 0
-13 8 -8 30 3 17 1 30 -4 30 -5 0 -15 46 -22 103 -7 56 -16 127 -21 157 -4 30
-9 150 -9 265 -1 326 -15 496 -97 1185 -14 118 -31 269 -38 335 -8 66 -32 230
-55 365 -23 135 -51 303 -62 375 -28 186 -43 258 -54 262 -12 4 -13 -414 -1
-440 6 -12 4 -28 -5 -43 -11 -21 -11 -33 0 -72 7 -26 15 -94 17 -152 7 -181
11 -237 17 -247 4 -6 1 -13 -6 -16 -15 -6 -39 60 -26 69 5 3 2 12 -7 21 -8 9
-14 29 -13 47 1 17 -1 38 -4 46 -12 33 -37 200 -41 280 -3 47 -12 114 -20 150
-8 36 -20 109 -26 163 -7 53 -16 97 -21 97 -5 0 -9 -11 -9 -25 0 -62 -45 -5
-56 70 -7 52 -29 105 -48 117 -8 6 -7 8 1 8 7 0 -5 24 -27 53 -22 28 -45 68
-50 87 -5 19 -18 40 -29 47 -21 13 -171 196 -171 209 0 5 -18 26 -40 48 -22
21 -38 42 -35 46 3 4 -2 10 -10 13 -8 4 -23 24 -35 46 -14 28 -29 43 -48 47
-31 7 -72 41 -72 59 0 7 -9 24 -21 39 -17 21 -24 24 -35 15 -17 -14 -44 4 -44
30 0 21 -61 46 -71 29 -5 -8 -20 1 -44 25 -20 20 -43 37 -51 37 -8 0 -14 5
-14 10 0 6 -11 10 -25 10 -13 0 -48 15 -77 34 -29 18 -76 45 -105 60 -29 14
-56 33 -61 42 -5 9 -12 15 -15 15 -32 -4 -51 5 -92 44 -43 42 -49 45 -85 39
-31 -5 -41 -3 -46 9 -3 8 -16 18 -30 21 -13 4 -34 20 -46 36 -12 17 -30 30
-39 30 -10 0 -30 6 -46 14 -68 35 -220 59 -362 58 -73 0 -121 4 -129 11 -30
24 -192 68 -192 52z m40 -165 c0 -5 -4 -10 -10 -10 -5 0 -10 5 -10 10 0 6 5
10 10 10 6 0 10 -4 10 -10z m-651 -206 c12 -11 -26 -34 -55 -34 -26 0 -34 4
-34 18 0 10 3 22 7 25 6 7 73 -1 82 -9z m846 -694 c3 -5 1 -10 -4 -10 -6 0
-11 5 -11 10 0 6 2 10 4 10 3 0 8 -4 11 -10z m-178 -62 c-3 -7 -5 -2 -5 12 0
14 2 19 5 13 2 -7 2 -19 0 -25z m283 24 c0 -14 -11 -21 -26 -15 -21 8 -17 23
6 23 11 0 20 -4 20 -8z m-286 -68 c3 -9 6 -28 5 -42 -1 -26 -1 -26 -8 4 -4 17
-11 36 -15 42 -4 7 -3 12 2 12 6 0 13 -7 16 -16z m-1454 -98 c0 -2 3 -11 6
-20 4 -12 0 -16 -15 -16 -14 0 -21 6 -21 20 0 11 7 20 15 20 8 0 15 -2 15 -4z
m2310 -91 c0 -8 -4 -15 -10 -15 -5 0 -10 7 -10 15 0 8 5 15 10 15 6 0 10 -7
10 -15z m-1942 -68 c2 -19 -1 -27 -12 -27 -8 0 -16 5 -18 11 -3 8 -10 5 -21
-6 -10 -9 -20 -15 -23 -12 -9 8 27 57 37 51 5 -3 9 0 9 6 0 23 25 3 28 -23z
m1985 -39 c-6 -12 -43 -10 -43 2 0 6 7 10 15 10 9 0 15 10 16 23 1 21 1 21 8
-3 5 -14 6 -28 4 -32z m72 -86 c-22 -5 -27 1 -19 23 7 17 8 17 21 -1 12 -17
12 -19 -2 -22z m1622 -214 c-3 -8 -6 -5 -6 6 -1 11 2 17 5 13 3 -3 4 -12 1
-19z m-6507 -382 c0 -3 -4 -8 -10 -11 -5 -3 -10 -1 -10 4 0 6 5 11 10 11 6 0
10 -2 10 -4z m-1113 -368 c-3 -7 -5 -2 -5 12 0 14 2 19 5 13 2 -7 2 -19 0 -25z
m8633 -47 c0 -9 -24 -21 -41 -21 -5 0 -9 7 -9 15 0 9 9 15 25 15 14 0 25 -4
25 -9z m-3 -93 c-3 -8 -6 -5 -6 6 -1 11 2 17 5 13 3 -3 4 -12 1 -19z m-8987
-28 c0 -5 -2 -10 -4 -10 -3 0 -8 5 -11 10 -3 6 -1 10 4 10 6 0 11 -4 11 -10z
m6495 -80 c8 -13 -5 -13 -25 0 -13 8 -13 10 2 10 9 0 20 -4 23 -10z m2835 -30
c0 -22 -4 -40 -10 -40 -5 0 -10 18 -10 40 0 22 5 40 10 40 6 0 10 -18 10 -40z
m60 0 c0 -22 -4 -40 -10 -40 -5 0 -10 18 -10 40 0 22 5 40 10 40 6 0 10 -18
10 -40z m-8153 -15 c-3 -43 -15 -35 -14 9 0 19 5 33 9 30 4 -3 7 -20 5 -39z
m5304 -118 c50 -11 132 -55 151 -82 4 -5 1 -15 -7 -21 -20 -15 -19 -34 3 -34
11 0 7 -6 -15 -19 -30 -19 -45 -45 -48 -86 -1 -11 -2 -30 -3 -42 -1 -13 -9
-23 -17 -23 -18 0 -20 -40 -2 -40 6 0 4 -6 -7 -12 -25 -14 -126 -14 -211 1
-46 9 -122 11 -225 8 -160 -5 -216 -12 -238 -30 -7 -5 -39 -9 -72 -8 -34 1
-60 -3 -60 -9 0 -14 -32 -12 -53 4 -10 8 -27 11 -39 8 -17 -4 -20 -2 -15 12 4
10 10 43 14 74 3 31 8 52 10 46 3 -9 12 -8 34 3 16 8 27 19 24 24 -4 5 -3 9 2
10 34 3 52 12 76 39 15 16 27 26 27 21 0 -6 21 -1 47 10 25 11 61 20 80 21 18
1 33 5 33 9 0 4 8 5 18 2 10 -2 24 3 31 11 8 9 21 16 30 16 9 0 25 6 36 13 62
42 254 79 295 57 15 -8 16 -5 12 17 -4 23 -2 25 14 19 10 -4 44 -13 75 -19z
m2525 -85 c-11 -10 -12 3 -7 53 l6 50 3 -49 c2 -26 1 -51 -2 -54z m-8849 -19
c-3 -10 -5 -2 -5 17 0 19 2 27 5 18 2 -10 2 -26 0 -35z m593 -22 c0 -34 -12
-81 -21 -81 -5 0 -9 9 -9 20 0 11 4 20 10 20 5 0 7 13 4 30 -4 19 -2 30 5 30
6 0 11 -8 11 -19z m-590 -53 c0 -7 -7 -21 -14 -31 -13 -17 -14 -16 -19 3 -3
11 -1 18 4 14 5 -3 9 2 9 10 0 9 5 16 10 16 6 0 10 -6 10 -12z m563 -145 c-3
-38 -10 -72 -15 -78 -7 -7 -8 11 -4 50 13 111 29 134 19 28z m5485 -100 c-4
-22 -22 -20 -26 1 -2 10 3 16 13 16 10 0 15 -7 13 -17z m-5511 -45 c-3 -8 -6
-5 -6 6 -1 11 2 17 5 13 3 -3 4 -12 1 -19z m9323 -38 c0 -22 -4 -40 -10 -40
-5 0 -10 18 -10 40 0 22 5 40 10 40 6 0 10 -18 10 -40z m-3610 -11 c0 -5 -4
-9 -10 -9 -5 0 -10 7 -10 16 0 8 5 12 10 9 6 -3 10 -10 10 -16z m-5191 -11 c0
-7 -4 -22 -9 -33 -7 -17 -9 -15 -9 13 -1 17 4 32 9 32 6 0 10 -6 9 -12z m-14
-88 c3 -5 1 -10 -4 -10 -6 0 -11 5 -11 10 0 6 2 10 4 10 3 0 8 -4 11 -10z
m8885 -76 c0 -8 -4 -14 -10 -14 -5 0 -10 9 -10 21 0 11 5 17 10 14 6 -3 10
-13 10 -21z m-9620 -8 c0 -3 -4 -8 -10 -11 -5 -3 -10 -1 -10 4 0 6 5 11 10 11
6 0 10 -2 10 -4z m7325 -92 c4 -27 8 -62 10 -79 3 -27 24 -141 57 -307 6 -32
14 -55 19 -52 9 5 14 -14 24 -89 4 -26 12 -62 20 -80 7 -18 17 -61 21 -95 5
-45 12 -67 26 -76 12 -9 16 -16 9 -21 -7 -4 -8 -13 -2 -23 4 -9 7 -28 6 -41
-1 -14 4 -45 12 -69 7 -25 13 -58 13 -74 0 -21 5 -28 20 -28 14 0 20 -7 20
-21 0 -11 5 -17 10 -14 6 3 10 0 10 -7 0 -8 9 -31 20 -53 22 -43 25 -65 10
-65 -5 0 -10 -9 -10 -20 0 -12 7 -20 17 -20 15 0 14 -2 -2 -20 -9 -10 -15 -26
-11 -35 3 -8 8 -43 12 -78 3 -34 10 -66 15 -72 16 -16 11 -45 -7 -38 -12 5
-12 0 4 -26 16 -26 18 -44 14 -101 -3 -46 -1 -75 7 -84 7 -8 8 -17 4 -19 -5
-3 -5 -45 0 -94 6 -48 10 -106 11 -128 0 -22 8 -45 16 -52 12 -10 12 -12 1
-13 -8 0 -11 -6 -7 -17 4 -9 9 -75 12 -147 7 -189 10 -214 22 -229 7 -8 8 -17
4 -21 -4 -4 -7 -43 -7 -87 0 -57 4 -80 14 -84 8 -3 10 -12 6 -23 -10 -24 -6
-83 7 -99 7 -9 7 -13 -1 -13 -6 0 -11 -7 -11 -15 0 -9 -6 -12 -15 -9 -18 7
-20 -7 -2 -26 10 -12 9 -12 -3 -3 -12 9 -15 35 -14 125 1 84 -3 121 -14 143
-9 17 -15 38 -13 48 1 9 -2 17 -7 17 -6 0 -13 19 -16 43 -4 23 -13 83 -21 132
-15 91 -34 211 -40 253 -2 12 -8 55 -15 95 -6 40 -15 101 -20 137 -6 36 -19
124 -29 195 -11 72 -22 157 -26 190 -4 33 -25 170 -47 305 -22 135 -42 256
-43 270 -2 14 -8 48 -13 75 -12 60 -69 466 -76 550 -13 135 -18 250 -13 244 4
-3 9 -27 12 -55z m2309 -89 c-4 -8 -8 -15 -10 -15 -2 0 -4 7 -4 15 0 8 4 15
10 15 5 0 7 -7 4 -15z m-8797 -137 c-3 -7 -5 -2 -5 12 0 14 2 19 5 13 2 -7 2
-19 0 -25z m1903 18 c69 -21 83 -67 22 -81 -26 -5 -30 -12 -40 -58 -6 -29 -12
-77 -14 -107 l-3 -55 112 3 c156 5 155 6 153 -121 -1 -56 -6 -169 -11 -252 -4
-82 -11 -197 -14 -255 -3 -58 -10 -161 -15 -230 -17 -232 -20 -285 -21 -367
l-1 -82 -102 -36 c-55 -20 -117 -42 -136 -50 -62 -24 -87 -26 -105 -9 -8 9
-14 24 -11 33 3 9 8 48 11 86 4 39 13 135 22 215 9 80 17 156 18 170 1 14 3
25 4 25 1 0 4 36 7 80 2 44 9 132 14 195 6 63 12 209 15 324 3 115 10 228 14
250 5 23 8 103 6 179 -3 119 -1 138 13 147 10 5 17 9 17 10 0 0 20 -6 45 -14z
m3924 -468 c3 -13 12 -84 21 -158 37 -320 47 -409 54 -481 4 -42 11 -80 14
-86 4 -6 14 -73 23 -150 8 -76 17 -149 18 -163 2 -14 6 -63 10 -110 4 -47 11
-98 16 -115 4 -16 11 -63 14 -104 4 -41 12 -81 18 -89 9 -10 8 -16 -3 -23 -8
-5 -10 -9 -6 -9 5 0 5 -5 2 -10 -4 -7 -12 -7 -25 0 -13 7 -20 26 -25 67 -3 32
-13 99 -21 148 -9 50 -20 137 -25 195 -11 135 -21 223 -59 505 -28 205 -48
372 -66 548 -5 53 -4 57 15 57 13 0 22 -8 25 -22z m-3484 -348 c0 -5 -7 -10
-16 -10 -8 0 -12 5 -9 10 3 6 10 10 16 10 5 0 9 -4 9 -10z m320 -26 c0 -8 5
-12 10 -9 6 3 10 -4 10 -17 l-1 -23 -19 24 c-22 25 -26 41 -10 41 6 0 10 -7
10 -16z m-130 -34 c0 -5 -7 -10 -15 -10 -8 0 -15 5 -15 10 0 6 7 10 15 10 8 0
15 -4 15 -10z m110 -20 c0 -5 -5 -10 -11 -10 -5 0 -7 5 -4 10 3 6 8 10 11 10
2 0 4 -4 4 -10z m54 -19 c4 -5 -3 -7 -14 -4 -23 6 -26 13 -6 13 8 0 17 -4 20
-9z m-270 -47 c32 -12 15 -24 -34 -24 l-50 0 -2 -82 c-1 -46 -3 -64 -5 -40 -2
23 -8 42 -14 42 -5 0 -9 18 -9 40 0 29 4 40 15 40 8 0 15 7 15 15 0 16 52 21
84 9z m-164 -54 c0 -5 -5 -10 -11 -10 -5 0 -7 5 -4 10 3 6 8 10 11 10 2 0 4
-4 4 -10z m3320 -127 c1 -149 24 -484 34 -502 10 -15 3 -14 -37 5 l-34 16 -7
112 c-4 61 -9 181 -12 267 -6 145 -5 159 15 197 12 23 26 42 31 42 6 0 10 -55
10 -137z m-3127 31 c-4 -10 -9 -12 -15 -6 -12 12 -1 35 12 27 5 -3 6 -13 3
-21z m923 -31 c-10 -10 -19 5 -10 18 6 11 8 11 12 0 2 -7 1 -15 -2 -18z m-956
-23 c0 -18 -3 -19 -20 -10 -11 6 -20 15 -20 20 0 6 9 10 20 10 13 0 20 -7 20
-20z m-1590 -30 c16 -39 3 -96 -27 -115 -20 -13 -30 -14 -58 -5 -61 20 -101
101 -57 117 9 4 22 12 29 18 6 7 32 12 56 12 40 1 47 -2 57 -27z m3600 -11 c0
-6 -4 -7 -10 -4 -5 3 -10 11 -10 16 0 6 5 7 10 4 6 -3 10 -11 10 -16z m-1237
-24 c-3 -9 -8 -14 -10 -11 -3 3 -2 9 2 15 9 16 15 13 8 -4z m-841 -2 c-10 -4
-10 -9 3 -23 25 -27 14 -64 -21 -68 -16 -2 -32 -9 -36 -15 -6 -9 -11 -8 -18 3
-5 8 -15 15 -21 15 -7 0 -14 14 -16 31 -3 26 1 33 19 39 45 15 121 31 90 18z
m1098 -35 c0 -4 -6 -8 -13 -8 -14 0 -39 35 -30 44 7 7 43 -23 43 -36z m180 38
c0 -3 -4 -8 -10 -11 -5 -3 -10 -1 -10 4 0 6 5 11 10 11 6 0 10 -2 10 -4z
m-1381 -107 c15 -26 -2 -51 -33 -47 -26 4 -47 55 -27 67 19 12 45 3 60 -20z
m1471 2 c0 -14 6 -17 24 -14 20 4 25 0 31 -27 4 -20 12 -30 20 -26 7 2 21 -4
31 -15 15 -16 15 -19 1 -19 -8 0 -37 10 -64 21 -56 25 -156 34 -196 18 -21 -9
-38 -9 -72 1 -48 14 -63 36 -17 27 15 -3 35 0 46 8 16 12 21 11 36 -8 l18 -22
18 32 c13 23 28 33 49 36 67 9 75 7 75 -12z m297 -28 c6 4 22 -7 37 -23 14
-17 32 -30 39 -30 7 0 6 -4 -4 -10 -20 -12 -162 -6 -166 7 -2 6 13 25 33 43
26 22 39 28 44 20 4 -7 12 -10 17 -7z m197 -38 c8 -22 -4 -47 -21 -41 -8 3
-26 6 -39 6 -24 0 -24 1 -8 25 18 28 58 34 68 10z m752 -63 c-22 -5 -30 3 -21
18 5 8 11 7 22 -2 15 -12 14 -13 -1 -16z m-126 -64 c0 -29 -15 -46 -23 -26 -3
8 -6 6 -6 -4 -1 -25 -21 -23 -21 1 0 11 5 23 10 26 6 3 10 20 10 38 0 29 1 30
15 11 8 -10 15 -31 15 -46z m-2110 -8 c0 -5 -5 -10 -11 -10 -5 0 -7 5 -4 10 3
6 8 10 11 10 2 0 4 -4 4 -10z m19 -11 c-11 -7 -11 -9 2 -9 17 0 69 -53 69 -70
0 -5 4 -10 9 -10 5 0 16 -16 25 -35 9 -19 23 -35 31 -35 8 0 15 -9 15 -20 0
-11 7 -23 15 -26 19 -8 75 -90 67 -98 -6 -7 -6 -7 -22 -131 -7 -49 -11 -114
-10 -142 0 -29 -3 -53 -7 -53 -5 0 -7 -20 -5 -45 3 -36 8 -45 23 -45 15 0 19
-7 19 -40 0 -29 -4 -40 -15 -40 -20 0 -19 -7 5 -37 13 -16 18 -34 14 -48 -3
-13 -1 -26 5 -29 6 -4 11 -22 11 -41 0 -21 6 -35 16 -39 11 -4 15 -14 11 -31
-3 -18 2 -30 17 -40 18 -13 19 -18 8 -35 -7 -11 -9 -20 -5 -20 10 0 9 -97 0
-107 -4 -3 -7 -17 -7 -30 0 -12 -5 -23 -11 -23 -8 0 -9 -16 -6 -47 3 -27 3
-40 0 -30 -4 17 -6 16 -24 -4 -10 -12 -19 -31 -19 -43 0 -18 -6 -21 -40 -21
-28 0 -40 4 -40 14 0 11 -3 10 -13 -3 -12 -17 -14 -17 -31 8 -12 19 -23 25
-36 21 -28 -9 -41 25 -36 97 3 44 9 65 22 75 17 12 16 13 -4 13 -12 0 -21 3
-20 8 1 4 -8 23 -20 42 -12 19 -22 29 -22 22 0 -15 -31 -12 -31 3 -1 19 -22
35 -48 36 -14 0 -20 3 -13 6 6 2 12 9 12 15 0 6 -6 8 -14 5 -20 -8 -30 19 -32
83 -1 30 -4 68 -7 85 -3 16 -7 80 -9 142 -2 62 -6 113 -11 113 -4 0 -7 12 -6
28 0 15 -2 63 -6 107 -15 165 0 284 47 385 22 48 68 98 85 93 5 -2 15 8 23 21
7 14 17 23 23 19 5 -3 3 -9 -4 -14z m968 -26 c27 5 63 -4 120 -29 17 -8 41
-14 53 -14 12 0 18 -4 15 -10 -4 -6 -19 -9 -33 -8 -52 4 -70 -26 -27 -42 30
-11 40 -33 29 -57 -7 -16 -8 -15 -11 5 -5 25 -18 29 -27 7 -4 -11 -22 -15 -75
-15 -70 0 -145 19 -108 27 25 6 21 39 -9 62 -35 28 -38 72 -4 81 14 4 31 3 37
-3 7 -5 25 -7 40 -4z m-2761 -10 c11 -12 13 -18 5 -21 -13 -4 -41 16 -41 29 0
14 17 10 36 -8z m7782 -38 c28 -17 32 -25 34 -65 1 -44 4 -70 8 -80 4 -10 10
-47 16 -100 4 -30 10 -59 14 -65 4 -5 8 -23 8 -40 0 -16 6 -52 12 -78 5 -27 8
-52 5 -57 -3 -5 2 -35 12 -67 9 -32 16 -62 15 -67 -2 -4 3 -14 9 -22 8 -10 8
-14 0 -14 -6 0 -11 -16 -11 -36 0 -24 -4 -34 -12 -31 -7 2 -20 1 -28 -3 -15
-8 -56 -14 -170 -24 -198 -19 -285 -25 -355 -25 -44 0 -200 -3 -347 -7 -147
-3 -280 -3 -297 1 -36 8 -37 9 -56 160 -8 66 -20 143 -25 170 -5 28 -16 106
-26 175 -9 69 -20 147 -24 174 -4 28 -6 55 -4 61 5 12 367 42 614 51 80 3 150
7 155 9 6 2 102 3 215 2 183 -2 209 -5 238 -22z m-8078 -41 c0 -8 -4 -12 -10
-9 -5 3 -10 10 -10 16 0 5 5 9 10 9 6 0 10 -7 10 -16z m253 -28 c6 -16 -2 -28
-14 -20 -12 7 -11 34 0 34 5 0 11 -6 14 -14z m558 -27 c8 -16 8 -24 -1 -33 -9
-8 -16 -5 -31 13 -10 13 -19 27 -19 32 0 18 40 8 51 -12z m-733 -43 c2 -11 13
-27 25 -36 12 -10 16 -19 10 -23 -6 -4 -16 0 -23 8 -7 8 -18 15 -25 15 -14 0
-37 45 -27 54 12 12 37 1 40 -18z m282 -182 c0 -9 -7 -14 -17 -12 -25 5 -28
28 -4 28 12 0 21 -6 21 -16z m-270 -15 c3 -4 24 -12 45 -17 35 -7 40 -11 40
-37 0 -40 -22 -43 -42 -6 -12 20 -26 31 -40 31 -24 0 -39 -15 -23 -25 5 -3 10
-13 10 -21 0 -12 -3 -12 -20 -2 -16 11 -22 9 -34 -7 -9 -11 -16 -15 -17 -10
-1 6 -3 15 -3 20 -1 6 -8 20 -15 33 -16 30 -9 49 21 55 29 6 71 -2 78 -14z
m3090 -239 c0 -5 -4 -10 -10 -10 -5 0 -10 5 -10 10 0 6 5 10 10 10 6 0 10 -4
10 -10z m3006 -147 c-11 -11 -17 4 -9 23 7 18 8 18 11 1 2 -10 1 -21 -2 -24z
m1 -70 c-3 -10 -5 -4 -5 12 0 17 2 24 5 18 2 -7 2 -21 0 -30z m-2507 -803 c0
-5 -5 -10 -11 -10 -5 0 -7 5 -4 10 3 6 8 10 11 10 2 0 4 -4 4 -10z m3922 -213
c-6 -17 -12 -58 -14 -89 -2 -32 -6 -58 -10 -58 -5 0 -8 6 -8 14 0 24 -18 28
-38 8 -11 -11 -32 -19 -48 -19 -16 0 -39 -4 -52 -8 -19 -6 -25 -3 -35 24 -9
24 -19 32 -47 37 -87 15 -94 19 -102 55 -12 59 8 98 38 70 15 -15 284 -19 284
-5 0 16 22 24 35 13 5 -6 5 -21 -3 -42z m69 -117 c10 -6 19 -17 19 -24 0 -19
-34 -9 -56 15 -16 18 -16 19 0 19 10 0 26 -5 37 -10z"/>
<path d="M4590 1380 c0 -5 5 -10 10 -10 6 0 10 5 10 10 0 6 -4 10 -10 10 -5 0
-10 -4 -10 -10z"/>
<path d="M5558 2433 c7 -3 16 -2 19 1 4 3 -2 6 -13 5 -11 0 -14 -3 -6 -6z"/>
<path d="M5494 2399 c-3 -6 1 -18 10 -27 15 -15 16 -14 16 11 0 27 -13 36 -26
16z"/>
<path d="M5447 2393 c-4 -3 -7 -12 -7 -20 0 -11 5 -11 20 -3 11 6 20 15 20 20
0 11 -23 13 -33 3z"/>
<path d="M9810 7626 c0 -2 7 -6 15 -10 8 -3 15 -1 15 4 0 6 -7 10 -15 10 -8 0
-15 -2 -15 -4z"/>
<path d="M9701 7528 c-1 -20 14 -24 25 -6 4 6 3 8 -4 4 -5 -3 -13 0 -15 6 -3
8 -6 6 -6 -4z"/>
<path d="M4449 7353 c-13 -17 -13 -17 6 -3 11 8 22 16 24 17 2 2 0 3 -6 3 -6
0 -17 -8 -24 -17z"/>
<path d="M4421 7324 c0 -11 3 -14 6 -6 3 7 2 16 -1 19 -3 4 -6 -2 -5 -13z"/>
<path d="M4220 6815 c0 -8 5 -15 10 -15 6 0 10 7 10 15 0 8 -4 15 -10 15 -5 0
-10 -7 -10 -15z"/>
<path d="M5950 6780 c0 -5 5 -10 10 -10 6 0 10 5 10 10 0 6 -4 10 -10 10 -5 0
-10 -4 -10 -10z"/>
<path d="M6040 6680 c0 -5 7 -10 15 -10 8 0 15 5 15 10 0 6 -7 10 -15 10 -8 0
-15 -4 -15 -10z"/>
<path d="M5102 6577 c9 -7 18 -26 21 -42 3 -24 4 -21 6 13 1 37 -1 42 -21 42
-21 -1 -21 -2 -6 -13z"/>
<path d="M1665 6520 c-3 -5 1 -10 9 -10 9 0 16 5 16 10 0 6 -4 10 -9 10 -6 0
-13 -4 -16 -10z"/>
<path d="M1937 6450 c-3 -11 -1 -20 4 -20 5 0 9 9 9 20 0 11 -2 20 -4 20 -2 0
-6 -9 -9 -20z"/>
<path d="M9325 6240 c-8 -14 3 -30 21 -30 8 0 14 9 14 20 0 21 -24 28 -35 10z"/>
<path d="M9344 6166 c3 -13 9 -31 12 -40 3 -9 1 -16 -5 -16 -6 0 -11 -17 -11
-40 0 -22 5 -40 10 -40 6 0 10 -25 10 -55 l0 -55 40 0 c36 0 40 -2 40 -25 0
-20 5 -25 25 -25 23 0 25 4 25 40 0 22 -4 40 -9 40 -5 0 -12 8 -15 18 -15 38
-31 62 -43 62 -8 0 -13 14 -13 40 0 22 -3 40 -8 40 -7 0 -25 30 -38 63 -10 26
-27 20 -20 -7z"/>
<path d="M4175 6120 c-3 -5 -1 -10 4 -10 6 0 11 5 11 10 0 6 -2 10 -4 10 -3 0
-8 -4 -11 -10z"/>
<path d="M4212 6080 c0 -14 2 -19 5 -12 2 6 2 18 0 25 -3 6 -5 1 -5 -13z"/>
<path d="M4172 6060 c0 -19 2 -27 5 -17 2 9 2 25 0 35 -3 9 -5 1 -5 -18z"/>
<path d="M4113 6050 c-3 -11 -12 -20 -19 -20 -8 0 -14 -9 -14 -19 0 -10 -7
-21 -15 -25 -8 -3 -15 -16 -15 -28 l0 -23 -20 25 c-22 30 -33 22 -34 -25 -1
-21 -6 -35 -14 -35 -9 0 -10 -12 -6 -42 7 -46 23 -86 24 -58 0 28 18 -5 25
-47 4 -29 3 -43 -4 -43 -6 0 -11 5 -11 10 0 6 -9 10 -20 10 -11 0 -20 -5 -20
-10 0 -6 8 -10 18 -8 13 2 16 -3 14 -22 -8 -58 -4 -91 12 -109 14 -15 15 -24
6 -40 -8 -16 -7 -26 6 -46 10 -15 12 -25 5 -25 -16 0 -13 -69 4 -86 9 -9 12
-25 9 -43 -7 -33 -10 -170 -6 -261 1 -36 0 -81 -4 -101 -5 -31 -2 -38 20 -52
30 -20 33 -53 11 -132 l-14 -50 0 43 c-1 27 3 42 12 42 9 0 9 2 0 8 -7 4 -16
19 -22 32 -7 19 -10 -1 -10 -80 0 -89 2 -102 13 -87 21 27 26 21 27 -30 1 -38
5 -23 21 67 20 116 20 117 15 655 0 70 39 261 65 321 6 12 7 64 4 120 -7 116
-22 238 -25 209 -2 -19 -3 -19 -11 3 -11 27 -20 28 -27 2z m-63 -190 c0 -5 -4
-10 -9 -10 -6 0 -13 5 -16 10 -3 6 1 10 9 10 9 0 16 -4 16 -10z"/>
<path d="M9271 5884 c0 -11 3 -14 6 -6 3 7 2 16 -1 19 -3 4 -6 -2 -5 -13z"/>
<path d="M2382 5810 c0 -14 2 -19 5 -12 2 6 2 18 0 25 -3 6 -5 1 -5 -13z"/>
<path d="M2381 5745 c1 -40 1 -40 11 -12 7 21 7 32 -1 40 -8 8 -11 0 -10 -28z"/>
<path d="M715 5620 c3 -5 8 -10 11 -10 2 0 4 5 4 10 0 6 -5 10 -11 10 -5 0 -7
-4 -4 -10z"/>
<path d="M2366 5599 c-4 -19 -11 -340 -16 -714 -10 -649 -16 -802 -40 -1050
-6 -60 -10 -171 -8 -245 l3 -135 170 3 c94 1 175 2 182 2 14 0 19 43 43 415
11 165 27 399 35 520 8 121 24 362 35 535 11 173 27 362 35 420 20 152 26 248
17 254 -5 3 -92 7 -193 10 -101 3 -201 8 -221 12 -36 6 -37 5 -42 -27z"/>
<path d="M9360 5593 c0 -24 5 -43 10 -43 13 0 13 50 0 70 -7 11 -10 4 -10 -27z"/>
<path d="M9395 5598 c9 -43 12 -45 30 -22 23 31 19 54 -11 54 -24 0 -25 -2
-19 -32z"/>
<path d="M6860 5510 c0 -5 5 -10 10 -10 6 0 10 5 10 10 0 6 -4 10 -10 10 -5 0
-10 -4 -10 -10z"/>
<path d="M9545 5400 c-3 -5 1 -10 10 -10 9 0 13 5 10 10 -3 6 -8 10 -10 10 -2
0 -7 -4 -10 -10z"/>
<path d="M1230 5291 c0 -17 2 -31 4 -31 8 0 13 51 5 56 -5 3 -9 -9 -9 -25z"/>
<path d="M4533 5313 c13 -8 -3 -22 -18 -17 -16 6 -50 -40 -40 -55 3 -6 -1 -24
-10 -41 -9 -17 -13 -35 -10 -40 8 -13 52 -13 60 0 4 7 24 9 48 6 183 -24 284
-39 292 -46 6 -4 24 -10 40 -13 45 -7 90 -25 191 -73 50 -24 100 -44 110 -44
11 0 25 -9 32 -20 7 -11 19 -20 27 -20 17 0 35 38 28 58 -6 14 13 16 22 2 3
-5 10 -10 16 -10 14 0 11 22 -8 42 -14 16 -15 23 -5 39 11 16 9 19 -8 19 -11
0 -20 5 -20 10 0 6 7 10 16 10 8 0 12 4 9 10 -3 5 -20 7 -36 3 -17 -3 -34 -2
-38 3 -15 21 -93 54 -129 54 -22 0 -50 8 -63 18 -31 24 -100 44 -113 33 -18
-14 -66 -22 -66 -11 0 5 5 10 10 10 6 0 10 5 10 10 0 13 -46 33 -80 36 -14 1
-43 5 -65 9 -32 5 -44 3 -54 -9 -15 -18 -38 -21 -43 -5 -2 6 -21 14 -43 19
-22 4 -47 10 -55 12 -8 3 -12 3 -7 1z"/>
<path d="M4363 5200 c-24 -11 -43 -26 -43 -35 0 -8 -9 -15 -20 -15 -17 0 -20
-7 -20 -39 0 -22 -3 -41 -7 -44 -5 -2 -3 -3 3 -1 6 1 16 -8 22 -21 13 -28 48
-24 57 6 4 10 11 19 16 19 5 0 9 11 9 25 0 14 5 25 10 25 6 0 10 7 10 15 0 7
6 18 14 22 9 5 12 18 9 36 -6 31 -5 31 -60 7z"/>
<path d="M4415 5140 c-3 -5 -2 -10 4 -10 5 0 13 5 16 10 3 6 2 10 -4 10 -5 0
-13 -4 -16 -10z"/>
<path d="M4835 4807 c-98 -10 -203 -27 -250 -39 -22 -5 -56 -13 -75 -18 -19
-4 -30 -8 -25 -9 6 -1 -8 -12 -30 -25 -22 -13 -43 -22 -47 -20 -5 3 -8 -2 -8
-10 0 -9 -8 -16 -19 -16 -26 0 -47 -68 -33 -107 7 -21 56 -15 126 17 37 17 71
28 76 25 6 -4 10 -2 10 4 0 6 7 8 15 5 15 -6 19 0 29 48 7 30 36 51 59 42 8
-3 20 -25 26 -49 21 -84 116 -143 212 -132 69 8 92 26 123 92 19 39 32 55 46
55 22 0 40 -28 40 -62 0 -16 3 -19 8 -10 5 7 25 15 44 19 31 5 38 2 54 -22 15
-23 15 -28 3 -36 -16 -11 -92 -1 -97 12 -4 11 -42 -34 -42 -49 0 -14 78 -24
99 -13 10 6 21 7 25 4 3 -3 6 -1 6 5 0 7 14 9 39 6 41 -5 62 9 42 29 -14 14
-14 37 0 37 6 0 18 -9 27 -21 16 -19 20 -19 67 -7 28 7 56 18 63 25 18 17 15
70 -6 90 -11 10 -22 26 -25 37 -6 15 -15 17 -50 14 -25 -3 -54 1 -72 10 -18 9
-30 11 -32 5 -5 -13 -91 4 -113 21 -46 36 -195 56 -315 43z m45 -108 c0 -11
-4 -17 -10 -14 -5 3 -10 13 -10 21 0 8 5 14 10 14 6 0 10 -9 10 -21z"/>
<path d="M10523 4730 c-30 -12 -29 -28 3 -40 35 -14 34 -14 34 20 0 32 -3 34
-37 20z"/>
<path d="M5360 4479 c0 -11 5 -17 10 -14 6 3 10 13 10 21 0 8 -4 14 -10 14 -5
0 -10 -9 -10 -21z"/>
<path d="M5337 4450 c-3 -11 -1 -20 4 -20 5 0 9 9 9 20 0 11 -2 20 -4 20 -2 0
-6 -9 -9 -20z"/>
<path d="M6703 4393 c-13 -2 -23 -9 -23 -14 0 -15 63 -6 68 9 4 12 -4 13 -45
5z"/>
<path d="M6610 4380 c0 -5 9 -10 20 -10 11 0 20 5 20 10 0 6 -9 10 -20 10 -11
0 -20 -4 -20 -10z"/>
<path d="M1773 4345 c-3 -9 -3 -18 -1 -21 3 -3 8 4 11 16 6 23 -1 27 -10 5z"/>
<path d="M5200 4320 c0 -5 -11 -10 -23 -10 -25 0 -57 -28 -57 -48 0 -7 -9 -12
-20 -12 -10 0 -27 -8 -37 -17 -39 -38 -90 -56 -142 -50 -55 7 -62 -8 -14 -30
101 -48 304 42 320 141 4 29 2 36 -11 36 -9 0 -16 -4 -16 -10z"/>
<path d="M6794 4246 c-8 -17 -8 -28 3 -41 16 -23 20 -19 25 24 4 41 -12 51
-28 17z"/>
<path d="M5950 4211 c0 -12 6 -21 15 -21 8 0 15 4 15 9 0 5 -7 14 -15 21 -13
10 -15 9 -15 -9z"/>
<path d="M1750 4150 c0 -11 2 -20 4 -20 2 0 6 9 9 20 3 11 1 20 -4 20 -5 0 -9
-9 -9 -20z"/>
<path d="M6080 4094 c0 -8 5 -12 10 -9 6 3 10 10 10 16 0 5 -4 9 -10 9 -5 0
-10 -7 -10 -16z"/>
<path d="M6128 4003 c7 -3 16 -2 19 1 4 3 -2 6 -13 5 -11 0 -14 -3 -6 -6z"/>
<path d="M2210 3659 c0 -342 16 -892 30 -1004 6 -44 7 64 3 290 -10 708 -18
1013 -25 1021 -5 4 -8 -134 -8 -307z"/>
<path d="M1850 2080 c0 -5 10 -19 23 -30 20 -19 22 -20 26 -4 2 10 -5 24 -15
31 -21 15 -34 17 -34 3z"/>
<path d="M5273 735 c-18 -20 -16 -35 5 -35 27 0 43 15 36 33 -7 21 -25 21 -41
2z"/>
<path d="M10780 621 c0 -6 5 -13 10 -16 6 -3 10 1 10 9 0 9 -4 16 -10 16 -5 0
-10 -4 -10 -9z"/>
<path d="M10792 490 c0 -14 2 -19 5 -12 2 6 2 18 0 25 -3 6 -5 1 -5 -13z"/>
<path d="M5120 346 c0 -9 5 -16 10 -16 6 0 10 4 10 9 0 6 -4 13 -10 16 -5 3
-10 -1 -10 -9z"/>
<path d="M10630 317 c-52 -5 -195 -9 -317 -9 -188 0 -221 -2 -216 -14 6 -15
-9 -18 -64 -15 -24 2 -33 -2 -33 -13 0 -9 8 -16 18 -16 9 0 33 -10 52 -22 37
-23 58 -28 75 -17 6 4 28 4 50 0 26 -4 36 -9 27 -15 -7 -4 -19 -5 -27 -3 -7 3
-16 0 -18 -7 -3 -8 -17 -11 -35 -8 -40 5 -52 -16 -23 -40 26 -20 43 -16 34 10
-6 16 -5 16 13 0 12 -10 34 -16 56 -14 21 1 39 -3 41 -7 1 -5 15 -10 30 -10
15 -1 27 -6 27 -11 0 -5 14 -6 30 -2 35 6 41 -11 8 -23 -43 -16 3 -21 221 -28
l221 -6 0 142 0 141 -37 -1 c-21 -1 -81 -6 -133 -12z m-275 -77 c3 -5 1 -10
-4 -10 -6 0 -11 5 -11 10 0 6 2 10 4 10 3 0 8 -4 11 -10z m-235 -10 c0 -5 -2
-10 -4 -10 -3 0 -8 5 -11 10 -3 6 -1 10 4 10 6 0 11 -4 11 -10z m523 -7 c-7
-2 -19 -2 -25 0 -7 3 -2 5 12 5 14 0 19 -2 13 -5z"/>
</g>
</svg>
