<?xml version="1.0" standalone="no"?>
<!DOCTYPE svg PUBLIC "-//W3C//DTD SVG 20010904//EN"
 "http://www.w3.org/TR/2001/REC-SVG-20010904/DTD/svg10.dtd">
<svg version="1.0" xmlns="http://www.w3.org/2000/svg"
 width="640.000000pt" height="640.000000pt" viewBox="0 0 640.000000 640.000000"
 preserveAspectRatio="xMidYMid meet">

<g transform="translate(0.000000,640.000000) scale(0.100000,-0.100000)"
fill="#000000" stroke="none">
<path d="M0 3200 l0 -3200 165 0 c114 0 171 4 185 12 16 10 24 10 40 0 11 -6
38 -12 61 -12 l42 0 -27 21 c-14 11 -23 25 -20 31 3 5 19 -4 36 -21 17 -17 34
-31 39 -31 13 0 11 24 -3 38 -8 8 -8 12 -1 12 6 0 18 -11 27 -25 9 -14 23 -25
32 -25 13 0 11 5 -6 30 -12 16 -17 30 -11 30 14 0 51 -37 51 -50 0 -5 7 -10
16 -10 12 0 15 6 10 25 -8 32 8 32 36 0 28 -33 47 -32 45 1 -3 37 15 40 52 8
38 -32 54 -24 21 11 -13 14 -20 28 -16 32 4 5 25 -12 46 -37 39 -45 62 -51 40
-10 -10 18 -10 21 2 14 7 -4 19 -16 26 -26 19 -26 47 -22 97 12 45 31 69 37
80 20 3 -5 0 -7 -9 -4 -8 3 -27 -2 -41 -12 -25 -16 -26 -19 -9 -25 26 -10 42
-10 26 0 -11 7 -11 9 1 14 9 3 21 -1 27 -9 11 -12 88 -14 501 -14 268 0 490 3
492 8 3 4 -2 34 -10 67 -13 49 -13 68 -4 104 10 38 9 45 -5 56 -13 9 -15 18
-7 41 9 28 12 29 79 31 50 1 63 -1 46 -8 -29 -11 -20 -29 11 -23 12 2 16 2 9
-2 -17 -8 -15 -27 3 -20 9 3 15 0 15 -9 0 -8 5 -15 10 -15 6 0 10 7 10 15 0
12 7 14 26 9 19 -5 25 -4 20 5 -4 6 -13 11 -21 11 -8 0 -17 5 -21 12 -5 8 2 9
24 5 40 -8 51 8 15 21 -26 10 -26 10 -5 11 12 1 39 -6 59 -14 20 -8 38 -13 41
-10 3 3 13 -2 22 -10 14 -12 15 -33 12 -132 -2 -64 -8 -125 -13 -135 -12 -23
3 -24 25 -2 15 15 20 29 17 47 -1 5 3 6 9 2 6 -3 8 -10 5 -15 -3 -4 6 -11 20
-14 14 -4 25 -13 25 -21 0 -8 9 -15 20 -15 11 0 20 7 20 15 0 19 19 19 26 0 5
-13 88 -15 635 -15 625 0 629 0 619 20 -14 26 2 26 25 0 21 -24 45 -26 45 -5
0 19 14 19 30 0 16 -19 50 -20 50 -1 0 26 21 29 51 7 42 -31 57 -26 24 9 -22
23 -25 30 -12 30 9 0 26 -13 39 -30 24 -33 51 -41 41 -13 -6 16 -4 16 15 -1
12 -11 24 -17 27 -15 8 9 -7 49 -19 49 -18 0 -63 52 -50 57 7 2 9 22 6 54 -4
43 -2 49 12 43 19 -7 21 -30 4 -37 -20 -6 21 -47 46 -47 31 0 42 11 49 49 6
29 5 32 -11 26 -44 -18 -52 -18 -52 4 0 12 -4 20 -9 17 -5 -3 -13 0 -19 7 -8
9 -3 13 19 14 15 1 31 -2 34 -7 4 -6 23 -10 43 -10 32 0 43 6 75 44 39 47 48
72 22 62 -16 -6 -21 9 -5 19 15 10 63 -6 52 -17 -13 -13 -4 -38 14 -38 17 0
18 17 2 22 -8 3 -4 9 10 17 33 18 39 -9 13 -62 -12 -24 -21 -49 -21 -55 0 -7
-4 -12 -9 -12 -5 0 -9 -11 -10 -25 -5 -66 -4 -64 -25 -49 -11 8 -30 14 -41 14
-20 -1 -20 -1 0 -16 41 -30 55 -44 55 -54 0 -6 -5 -8 -11 -5 -17 11 -53 -2
-93 -34 l-37 -29 576 -2 c639 -1 622 -3 590 59 -17 33 -20 127 -5 151 6 10 3
20 -10 32 -14 13 -17 24 -11 45 7 27 10 28 76 30 49 1 64 -2 52 -8 -27 -15
-20 -30 11 -23 26 6 27 6 7 -11 -20 -16 -20 -16 3 -12 14 4 22 0 22 -9 0 -8 5
-14 10 -14 6 0 10 6 10 14 0 9 7 12 20 9 30 -8 24 11 -7 25 -27 11 -27 12 10
7 41 -4 50 10 15 25 -18 7 -19 9 -5 9 10 1 33 -6 53 -14 19 -8 40 -12 48 -9
28 11 35 -21 33 -142 -2 -86 -6 -126 -16 -138 -23 -28 -4 -30 24 -2 14 14 34
26 43 26 24 0 42 -19 35 -36 -3 -9 2 -14 15 -14 12 0 23 9 27 19 3 12 12 18
20 15 8 -3 12 -11 9 -18 -4 -10 60 -13 286 -15 l290 -2 0 3200 0 3201 -3200 0
-3200 0 0 -3200z m935 2896 c18 -13 18 -14 -3 -20 -12 -4 -23 -15 -23 -24 -4
-52 -1 -76 11 -80 7 -3 10 0 7 5 -4 6 2 18 13 28 13 11 20 14 20 6 0 -7 5 -9
10 -6 6 4 8 16 5 28 -2 12 -2 16 1 10 9 -20 34 -15 34 6 0 11 5 23 11 26 14 9
81 -4 74 -15 -7 -11 5 -40 17 -40 5 0 8 8 6 18 -2 11 3 17 17 17 13 0 19 -5
16 -15 -12 -43 -35 -106 -42 -110 -5 -3 -11 -25 -15 -48 -6 -39 -8 -41 -24
-27 -9 8 -27 15 -41 14 -23 0 -23 -1 -5 -12 30 -18 66 -55 66 -67 0 -7 -5 -7
-17 1 -21 12 -49 2 -102 -37 -41 -29 -65 -28 -69 4 -2 12 -9 22 -15 22 -18 1
-74 53 -61 57 7 2 9 22 6 54 -4 43 -2 49 12 43 18 -7 21 7 5 23 -9 9 -7 10 10
6 24 -6 29 15 9 35 -8 8 -8 12 -1 12 7 0 10 14 8 35 -2 22 2 41 11 50 19 18
25 19 49 1z m4651 -71 c19 -8 40 -12 48 -9 28 11 35 -21 33 -143 -2 -83 -7
-126 -16 -137 -27 -33 13 -17 42 16 16 18 26 28 23 22 -3 -6 5 -16 18 -22 18
-8 22 -16 18 -41 -2 -17 -10 -36 -18 -42 -27 -22 -14 -30 15 -10 16 12 35 37
41 56 8 23 16 32 26 28 12 -4 10 -12 -8 -45 -13 -22 -34 -49 -47 -59 -37 -29
-19 -32 23 -4 20 14 40 25 45 25 4 0 17 14 29 30 24 32 52 38 90 17 21 -12 20
-14 -34 -40 -65 -32 -67 -44 -4 -22 53 19 61 19 54 0 -8 -19 5 -19 30 0 11 8
29 15 41 15 12 0 30 -7 41 -15 18 -14 17 -14 -16 -15 -65 -1 -66 -17 -1 -25
56 -6 96 -25 54 -25 -27 0 -93 -20 -93 -28 0 -4 28 -5 61 -4 43 3 59 1 55 -7
-8 -13 -61 -42 -67 -37 -2 2 -17 6 -34 10 l-30 6 24 -20 c25 -22 71 -26 102
-10 15 8 19 7 19 -3 0 -25 -28 -39 -70 -35 -53 5 -52 -8 1 -15 22 -3 43 -8 46
-11 17 -16 -95 -90 -121 -80 -9 3 -16 1 -16 -5 0 -18 -40 -35 -53 -22 -17 17
-25 13 -29 -11 -2 -17 -10 -23 -27 -23 -20 0 -27 7 -33 34 -5 18 -7 36 -4 39
10 9 36 -20 36 -40 0 -11 4 -16 11 -12 6 3 9 17 6 30 -4 21 0 24 24 24 15 0
31 -4 34 -10 10 -16 25 -12 25 6 0 10 6 14 15 10 9 -3 15 0 15 8 0 10 7 12 22
8 14 -3 19 -2 14 6 -4 7 -12 12 -18 12 -7 0 -30 9 -52 19 -23 11 -57 22 -76
26 -33 6 -34 5 -16 -10 11 -8 27 -15 36 -15 20 0 70 -23 70 -32 0 -9 -42 -15
-137 -22 -84 -6 -113 -18 -113 -49 0 -16 -12 -27 -40 -40 -39 -18 -40 -18 -61
2 -12 11 -18 24 -14 30 3 6 1 11 -6 11 -21 0 1 16 74 54 37 20 75 36 84 36 13
0 14 3 5 12 -15 15 -16 32 -2 23 6 -4 24 -10 40 -15 l29 -8 -35 34 c-40 41
-36 64 6 34 42 -30 55 -24 18 9 -32 29 -33 29 -14 50 11 12 17 23 14 26 -9 10
-68 -65 -68 -85 0 -23 -10 -25 -29 -7 -11 10 -11 8 -1 -13 l13 -25 -25 23
c-36 32 -44 27 -14 -9 l27 -31 -41 -30 c-27 -20 -48 -28 -62 -25 -12 3 -29 2
-37 -3 -9 -4 -32 -5 -51 -1 l-34 7 24 17 c17 12 20 17 8 17 -8 0 -21 -7 -28
-15 -7 -8 -18 -15 -24 -14 -27 3 -38 -2 -33 -15 7 -17 -13 -26 -54 -26 -21 0
-29 5 -29 17 0 16 -1 16 -12 0 -11 -14 -15 -14 -32 -2 -14 11 -16 18 -8 28 8
10 6 16 -10 26 -15 10 -19 20 -16 47 4 34 -8 47 -18 19 -12 -30 -19 -5 -16 54
3 55 6 60 20 49 14 -11 15 -10 8 12 -9 29 -10 60 -2 68 3 2 15 -6 27 -19 17
-20 19 -21 13 -4 -12 31 -9 86 5 95 11 6 11 12 0 31 -22 41 -28 141 -10 163 8
10 6 17 -8 30 -14 13 -17 24 -12 44 7 26 11 27 77 29 50 1 64 -1 52 -8 -28
-16 -21 -30 10 -23 26 6 27 6 7 -11 -20 -16 -20 -16 3 -12 14 4 22 0 22 -9 0
-8 5 -14 10 -14 6 0 10 6 10 14 0 9 7 12 20 9 30 -8 24 11 -7 25 -27 11 -27
12 10 7 41 -4 50 10 15 25 -18 7 -19 9 -5 9 10 1 33 -6 53 -14z m-3510 -14
c-7 -11 -46 -21 -46 -12 0 13 13 21 32 21 11 0 17 -4 14 -9z m-1240 -283 c26
-35 49 -65 51 -67 2 -2 5 -2 9 1 3 3 -4 21 -15 39 -30 49 -26 71 5 32 14 -18
29 -33 34 -33 4 0 30 15 56 33 71 48 71 48 83 33 10 -12 9 -14 -6 -10 -10 2
-29 -5 -43 -16 -26 -20 -10 -29 20 -10 19 12 40 -6 40 -34 0 -21 -1 -20 -19 3
l-18 24 -39 -27 c-21 -14 -49 -26 -61 -26 -13 0 -23 -6 -23 -14 0 -23 30 -27
58 -8 43 30 59 32 78 11 16 -18 16 -20 1 -37 -23 -25 -21 -32 6 -29 16 1 21
-3 19 -15 -2 -13 4 -18 20 -19 13 0 17 -3 11 -6 -22 -8 -14 -23 12 -23 14 0
34 -9 45 -20 11 -11 25 -20 30 -20 24 0 67 -30 78 -55 15 -33 15 -35 -3 -35
-10 0 -15 -10 -15 -27 -1 -24 -2 -26 -11 -10 -6 9 -14 15 -20 12 -5 -4 -9 2
-9 13 0 10 -9 27 -20 37 -11 10 -20 24 -20 31 0 8 -11 12 -27 11 -25 -2 -28 1
-26 26 2 31 -3 33 -28 11 -14 -13 -21 -13 -38 -3 -15 10 -17 16 -9 26 14 18 2
29 -15 15 -7 -7 -48 -12 -90 -14 -72 -1 -79 0 -106 26 -16 16 -34 25 -40 22
-18 -12 -12 -26 11 -26 21 0 21 0 2 -15 -18 -14 -18 -14 7 -15 27 0 64 -31 52
-43 -3 -4 3 -7 14 -7 27 0 68 -34 87 -72 21 -41 20 -43 -9 -24 -27 18 -35 7
-10 -14 8 -7 15 -18 15 -24 -1 -6 -12 2 -25 19 -13 16 -27 26 -31 22 -4 -4 1
-16 11 -27 10 -11 16 -23 13 -26 -3 -3 -11 1 -16 8 -6 7 -27 32 -46 54 -20 23
-36 52 -36 64 0 17 -4 21 -20 17 -20 -5 -65 25 -53 37 3 3 2 6 -4 6 -5 0 -7
14 -5 32 4 25 2 30 -11 25 -9 -3 -18 0 -21 9 -3 8 1 14 9 14 8 0 15 5 15 11 0
7 -9 9 -24 5 -17 -4 -26 -1 -30 11 -6 15 -8 15 -16 3 -16 -24 -11 -92 7 -112
15 -17 15 -18 -4 -18 -27 0 -35 22 -27 70 7 44 -2 94 -15 85 -5 -3 -14 9 -20
25 -6 17 -19 43 -31 57 -24 30 -26 45 -5 37 8 -3 29 -33 47 -65 30 -55 48 -73
48 -49 0 6 -9 27 -20 47 -39 72 -20 84 36 23 44 -48 76 -56 43 -11 -21 28 -21
61 0 61 5 0 24 -12 41 -26 36 -31 53 -24 22 9 -24 25 -28 37 -13 37 6 0 31
-28 57 -62z m-341 -3 c17 -19 43 -49 58 -66 29 -32 31 -46 11 -108 -5 -17 -4
-22 4 -17 6 4 17 24 23 45 9 32 8 44 -6 75 -10 20 -15 39 -13 42 3 2 11 -10
18 -28 7 -18 19 -38 26 -44 16 -13 8 -144 -9 -144 -5 0 -7 15 -4 35 7 42 -10
58 -19 18 -14 -63 -14 -63 -57 -63 l-41 0 31 33 c48 50 68 147 31 147 -5 0 -8
-7 -4 -15 3 -8 3 -28 0 -43 -5 -26 -8 -27 -62 -27 -44 0 -64 5 -86 23 -38 29
-59 28 -23 -2 24 -20 26 -24 13 -35 -11 -9 -20 -10 -35 -2 -49 27 -67 13 -88
-69 l-9 -35 -5 32 c-7 41 14 103 41 125 13 10 16 19 10 23 -6 4 -26 -10 -45
-30 -19 -20 -35 -34 -35 -32 0 20 18 41 57 67 46 31 81 37 114 20 24 -14 26 5
2 19 -17 10 -17 10 -1 11 9 0 31 -14 47 -32 17 -18 33 -30 36 -26 12 11 -46
66 -87 84 -27 11 -37 19 -27 21 9 2 32 -5 50 -16 19 -12 42 -21 51 -21 10 0
23 -9 30 -20 15 -24 28 -26 28 -4 0 9 -19 34 -42 55 -25 23 -37 39 -28 39 8 0
29 -16 45 -35z m49 10 c13 -20 14 -25 3 -25 -8 0 -19 11 -25 25 -6 14 -8 25
-3 25 5 0 16 -11 25 -25z m-104 -11 c0 -2 -9 0 -20 6 -11 6 -20 13 -20 16 0 2
9 0 20 -6 11 -6 20 -13 20 -16z m5400 -23 c-5 -11 -15 -23 -21 -27 -6 -3 -3 5
6 20 20 30 30 35 15 7z m-5477 -18 c-7 -2 -21 -2 -30 0 -10 3 -4 5 12 5 17 0
24 -2 18 -5z m-58 -13 c-3 -5 -11 -10 -16 -10 -6 0 -7 5 -4 10 3 6 11 10 16
10 6 0 7 -4 4 -10z m388 -105 c-3 -9 -8 -14 -10 -11 -3 3 -2 9 2 15 9 16 15
13 8 -4z m-178 -25 c3 -5 -1 -10 -9 -10 -8 0 -18 5 -21 10 -3 6 1 10 9 10 8 0
18 -4 21 -10z m213 -10 c-7 -10 -14 -17 -17 -15 -4 4 18 35 25 35 2 0 -1 -9
-8 -20z m-402 -12 c-3 -13 -9 -42 -12 -65 -5 -29 -10 -40 -20 -36 -17 6 -18
33 -2 84 12 42 46 58 34 17z m165 -5 c6 -6 -14 -9 -51 -9 -58 1 -68 5 -52 20
9 10 91 1 103 -11z m-41 -32 l25 -8 -30 -14 c-16 -7 -49 -26 -72 -42 l-43 -28
0 23 c0 57 54 88 120 69z m104 -43 c-3 -4 -14 -8 -25 -8 -11 0 -18 4 -15 8 2
4 14 8 25 8 11 0 17 -4 15 -8z m61 2 c-3 -5 -11 -10 -16 -10 -6 0 -7 5 -4 10
3 6 11 10 16 10 6 0 7 -4 4 -10z m-207 -42 c-17 -26 -48 -36 -48 -16 0 7 10
18 23 24 35 18 41 16 25 -8z m57 -8 c-3 -5 3 -10 12 -13 16 -3 16 -5 -2 -11
-11 -4 -27 -11 -35 -15 -33 -17 -42 1 -14 30 15 15 31 26 36 23 4 -3 6 -9 3
-14z m194 -11 c-16 -10 -23 -4 -14 10 3 6 11 8 17 5 6 -4 5 -9 -3 -15z m51
-14 c9 -10 9 -15 1 -15 -6 0 -11 5 -11 11 0 6 -7 8 -16 5 -8 -3 -12 -2 -9 4 9
14 21 12 35 -5z m-214 -42 c-14 -14 -29 -23 -33 -20 -9 10 27 47 45 47 10 0 6
-8 -12 -27z m74 -27 c5 -13 16 -29 26 -34 10 -6 13 -12 6 -16 -6 -3 -13 -2
-17 4 -3 5 -11 10 -16 10 -6 0 -7 -4 -4 -10 13 -21 -22 -9 -45 15 -19 20 -21
27 -10 40 19 23 49 18 60 -9z m2550 -279 c65 -27 151 -31 242 -9 119 28 368
24 483 -8 137 -38 299 -148 415 -281 120 -138 124 -144 174 -309 35 -114 66
-260 66 -306 0 -23 7 -106 16 -185 17 -150 14 -322 -6 -389 -6 -19 -11 -56
-11 -81 l-1 -47 -51 20 c-124 48 -187 60 -302 55 -93 -5 -130 -12 -240 -46
-71 -23 -141 -51 -155 -62 -14 -11 -39 -29 -57 -40 -17 -11 -48 -44 -69 -74
-31 -46 -35 -57 -24 -70 11 -13 10 -22 -8 -54 -12 -21 -19 -41 -15 -44 3 -4 0
-14 -7 -22 -31 -37 103 -145 188 -152 202 -16 249 -15 309 6 32 12 67 24 78
25 42 7 151 48 179 68 27 20 29 20 22 2 -9 -22 -34 -136 -46 -209 -14 -83 12
-174 104 -372 46 -98 86 -188 90 -199 6 -21 -27 -94 -43 -94 -4 0 -14 -12 -23
-27 -10 -16 -49 -61 -88 -102 -38 -40 -70 -76 -70 -79 0 -3 -12 -21 -27 -41
-16 -20 -27 -40 -25 -44 1 -4 -11 -22 -28 -40 -17 -18 -51 -62 -76 -100 -31
-45 -65 -80 -103 -106 -65 -45 -161 -134 -161 -150 0 -6 -3 -11 -8 -11 -4 0
-27 -18 -51 -40 -24 -22 -80 -58 -125 -80 -44 -22 -101 -54 -126 -70 -25 -16
-52 -32 -60 -36 -8 -3 -22 -9 -31 -14 -32 -17 -143 -40 -163 -34 -12 3 -43 14
-71 24 -27 11 -66 22 -86 25 -41 6 -63 21 -133 88 -28 27 -65 55 -84 63 -18 7
-51 29 -74 48 -22 19 -61 44 -86 56 -42 20 -140 87 -170 117 -7 7 -20 13 -28
13 -15 0 -154 138 -154 153 0 4 -8 7 -18 7 -10 0 -22 12 -29 30 -8 21 -20 32
-40 36 -28 6 -93 79 -121 135 -8 15 -40 49 -72 76 -32 26 -68 67 -81 91 -19
37 -21 47 -11 80 7 20 31 66 55 102 83 127 128 219 135 279 9 73 7 266 -3 314
-7 33 -5 37 12 37 11 0 47 -12 79 -26 54 -24 67 -26 149 -20 188 12 220 19
280 66 80 62 84 72 53 153 -6 17 -29 38 -57 54 -25 14 -55 34 -66 43 -84 71
-286 116 -482 107 -62 -3 -115 -1 -118 4 -3 4 1 22 10 39 12 23 23 30 48 32
106 5 162 1 249 -19 141 -34 216 -72 336 -173 34 -29 57 -32 82 -12 21 17 22
20 7 48 -35 65 -148 155 -218 174 -24 7 -77 23 -118 36 -118 38 -285 42 -372
9 -13 -5 -17 4 -23 53 -5 41 -16 74 -37 108 -36 55 -42 100 -41 305 0 132 14
220 53 319 12 30 31 80 43 110 53 138 160 288 246 347 25 16 92 55 150 85 58
31 142 79 187 107 46 28 87 51 92 51 5 0 39 14 77 30 51 23 84 31 138 33 66 2
71 4 69 24 -3 24 -5 24 77 -10z m2645 -356 c3 -5 -3 -12 -12 -15 -27 -8 -48
-47 -32 -56 6 -5 9 -15 6 -24 -3 -8 -1 -18 6 -22 7 -4 9 -4 5 0 -11 13 24 47
37 36 17 -14 26 0 14 21 -6 13 -6 19 1 19 5 0 10 -4 10 -10 0 -5 7 -10 15 -10
9 0 14 8 12 22 -1 17 4 24 22 26 33 5 78 -7 63 -17 -7 -4 -10 -15 -6 -24 7
-19 20 -22 29 -7 3 6 1 10 -5 10 -6 0 -8 5 -5 10 10 16 45 12 45 -5 0 -9 -7
-27 -16 -40 -9 -13 -13 -28 -10 -33 3 -5 -3 -18 -12 -28 -16 -17 -21 -35 -25
-86 -1 -14 -4 -14 -21 -2 -24 16 -56 19 -56 4 0 -5 6 -10 13 -10 15 0 57 -36
57 -49 0 -5 -10 -6 -23 -4 -15 3 -41 -8 -75 -31 -65 -45 -90 -46 -83 -4 0 4
-12 14 -27 22 -39 20 -59 45 -44 55 7 4 8 18 3 41 -4 19 -6 40 -4 47 6 16 33
5 33 -13 0 -8 5 -14 10 -14 6 0 10 -5 10 -10 0 -7 -6 -7 -20 0 -26 14 -26 2 2
-21 33 -29 57 -24 74 17 17 42 14 50 -14 35 -30 -16 -42 -13 -42 10 0 11 -4
18 -9 15 -5 -3 -14 1 -21 9 -11 13 -10 14 3 10 18 -8 31 10 21 27 -8 13 -6 87
3 100 6 11 61 10 68 -1z m-5132 -92 c12 -7 34 -12 49 -11 15 0 31 -5 35 -11
11 -18 4 -247 -8 -269 -15 -28 -6 -31 19 -8 21 19 26 33 23 53 -1 5 3 6 9 2 6
-3 8 -10 5 -15 -3 -4 7 -11 21 -14 24 -6 26 -10 21 -43 -4 -19 -14 -45 -24
-56 -18 -19 -17 -20 4 -9 29 16 63 60 63 83 0 20 15 25 25 9 9 -14 -20 -64
-56 -94 -17 -15 -29 -30 -25 -33 7 -7 78 39 123 80 26 24 36 28 62 22 47 -10
47 -23 -2 -44 -25 -11 -48 -24 -51 -30 -9 -14 -5 -14 37 4 48 20 68 19 60 -1
-5 -14 -3 -15 15 -5 18 10 22 9 22 -3 0 -8 -4 -17 -9 -21 -5 -3 -13 -19 -16
-37 -4 -17 -14 -46 -21 -65 -14 -33 -15 -33 -44 -18 -16 8 -34 15 -41 15 -19
0 8 -26 41 -40 40 -16 28 -32 -18 -25 l-37 6 30 -17 c17 -9 31 -17 32 -18 1
-1 0 -12 -4 -24 -4 -18 -13 -22 -42 -22 -88 -1 -148 -32 -138 -72 3 -10 0 -15
-8 -11 -8 2 -26 -4 -41 -14 -20 -13 -29 -14 -32 -5 -2 6 -10 12 -17 12 -13 0
-27 48 -18 62 2 5 12 8 21 8 9 0 37 14 62 30 25 16 52 30 62 30 12 0 15 6 10
23 -4 18 -3 20 9 11 8 -6 26 -14 40 -18 27 -6 27 -6 -7 28 -44 44 -44 64 0 37
48 -30 68 -26 22 5 l-38 26 23 24 c12 13 19 27 16 31 -11 10 -45 -27 -64 -68
-14 -32 -19 -36 -31 -26 -13 10 -14 8 -7 -12 l7 -23 -21 21 c-32 32 -49 25
-18 -7 15 -15 27 -31 27 -34 0 -14 -78 -57 -105 -57 -16 0 -37 -1 -45 -2 -8
-1 -28 -1 -45 0 l-30 1 25 20 c19 15 21 20 9 20 -9 0 -22 -7 -29 -15 -7 -8
-16 -12 -21 -9 -13 8 -34 -8 -34 -26 0 -8 -8 -15 -17 -15 -9 0 -19 -3 -23 -7
-9 -9 -45 3 -45 16 0 6 -4 5 -9 -3 -8 -12 -12 -12 -24 -2 -21 17 -15 55 13 94
13 18 17 26 9 20 -12 -10 -18 -10 -27 -1 -9 9 -12 6 -12 -14 0 -15 -4 -30 -10
-33 -10 -6 -14 12 -11 55 l1 25 -19 -23 -20 -23 1 63 c1 68 6 88 19 67 13 -22
22 -3 9 21 -6 11 -8 30 -5 41 7 21 7 21 31 -2 28 -26 31 -19 8 16 -14 21 -14
26 1 55 9 17 13 35 10 40 -16 26 -26 123 -15 155 10 29 9 38 -4 51 -19 18 -18
16 -7 47 8 21 15 24 78 24 50 1 62 -1 45 -8 -29 -11 -20 -29 11 -23 12 2 16 2
10 -2 -18 -8 -16 -27 2 -20 9 3 15 0 15 -9 0 -8 5 -15 10 -15 6 0 10 7 10 15
0 12 7 14 26 9 19 -5 25 -4 20 5 -4 6 -13 11 -21 11 -8 0 -17 5 -21 12 -5 8 2
9 24 5 40 -8 51 8 15 21 -26 10 -26 10 -5 11 13 1 33 -4 45 -10z m5117 -103
c0 -2 -7 -7 -16 -10 -8 -3 -12 -2 -9 4 6 10 25 14 25 6z m-145 -112 c9 -4 34
-33 56 -65 22 -33 44 -59 49 -59 13 0 13 17 1 25 -10 6 -41 63 -41 74 1 3 8
-3 18 -14 42 -48 48 -49 97 -16 78 53 83 54 96 29 11 -20 10 -22 -3 -10 -12
10 -21 10 -42 1 -27 -13 -37 -36 -11 -25 8 3 21 9 29 12 9 3 19 -3 25 -15 13
-24 -3 -39 -17 -15 -8 14 -13 13 -50 -10 -23 -14 -51 -26 -62 -26 -22 0 -28
-26 -7 -33 6 -2 31 7 55 20 34 20 45 23 57 13 19 -16 19 -46 0 -54 -23 -9 -18
-28 6 -21 15 5 22 2 26 -14 3 -13 14 -21 27 -21 17 0 19 -2 6 -11 -11 -8 -12
-12 -2 -16 8 -3 5 -10 -10 -23 -28 -22 -58 -8 -50 24 5 19 4 19 -11 7 -11 -9
-44 -13 -96 -13 -75 0 -81 1 -104 27 -19 23 -27 26 -43 17 -18 -10 -18 -11 6
-21 14 -5 19 -10 13 -10 -24 -2 -13 -21 10 -21 25 0 62 -32 50 -43 -3 -4 2 -7
12 -7 20 0 89 -49 81 -57 -3 -3 -1 -14 5 -24 9 -18 0 -26 -15 -12 -12 12 -46
10 -46 -3 0 -7 7 -20 16 -29 9 -9 14 -18 11 -21 -3 -3 -12 3 -21 13 -9 10 -30
33 -46 52 -17 19 -33 45 -36 58 -4 16 -12 22 -21 19 -23 -9 -59 35 -57 69 0
17 -3 32 -7 35 -4 3 -12 31 -17 62 -7 45 -6 55 5 51 17 -7 16 2 -3 32 -16 25
-13 55 5 55 5 0 24 -12 41 -26 40 -35 52 -22 15 16 -29 31 -29 35 0 24z
m-4711 -118 c-9 -15 -19 -25 -21 -22 -3 2 3 16 13 30 9 15 19 25 21 22 3 -2
-3 -16 -13 -30z m5078 -150 c10 -7 15 -16 11 -19 -3 -4 6 -7 21 -7 17 0 39
-11 57 -29 29 -29 39 -61 19 -61 -5 0 -10 -11 -10 -25 0 -14 -4 -25 -10 -25
-5 0 -10 8 -10 17 0 9 -3 13 -7 9 -7 -6 -34 37 -49 76 -4 13 -13 16 -29 12
-28 -7 -39 9 -31 42 7 27 14 29 38 10z m-196 -174 c-4 -3 -14 2 -24 12 -16 18
-16 18 6 6 13 -6 21 -14 18 -18z m-4844 -42 c7 -16 17 -30 21 -30 5 0 5 -4 2
-10 -10 -16 -42 -12 -49 6 -9 24 -7 64 3 64 5 0 15 -13 23 -30z m38 21 c0 -6
-4 -13 -10 -16 -5 -3 -10 1 -10 9 0 9 5 16 10 16 6 0 10 -4 10 -9z m280 -258
c14 -73 30 -111 88 -198 97 -147 128 -212 148 -306 28 -133 26 -293 -5 -372
l-11 -28 -35 24 c-49 34 -211 193 -268 265 -47 60 -112 196 -101 213 3 5 -5
31 -18 57 -12 26 -23 50 -23 54 0 3 -3 10 -7 14 -5 4 1 13 12 21 28 20 25 83
-5 83 -7 0 -18 7 -25 15 -13 16 -6 19 32 16 21 -2 39 29 31 57 -10 40 86 118
174 142 1 0 7 -26 13 -57z m4154 -263 c-3 -14 -8 -56 -10 -95 -6 -84 -17 -123
-55 -187 -16 -27 -29 -51 -29 -54 0 -16 -139 -168 -147 -160 -3 2 2 26 10 53
9 26 19 64 22 83 4 19 42 108 86 198 44 90 87 182 96 205 l17 41 8 -29 c5 -17
6 -41 2 -55z m-1059 19 c22 -6 62 -20 88 -32 48 -20 49 -21 42 -56 -4 -20 -8
-37 -9 -38 -1 -1 -24 9 -51 22 -92 45 -378 52 -507 13 -104 -31 -114 -17 -18
24 47 20 99 39 115 42 17 4 53 13 80 20 60 18 205 20 260 5z m7 -161 c29 -6
54 -12 55 -13 1 0 -4 -18 -11 -38 -12 -35 -22 -45 -101 -94 -43 -27 -77 -44
-81 -41 -2 2 1 29 5 59 6 38 5 65 -4 91 l-12 37 31 4 c58 7 65 7 118 -5z
m-2188 -15 c-11 -25 -13 -123 -3 -150 6 -17 5 -23 -6 -23 -15 0 -68 105 -80
159 l-7 31 52 0 c46 0 51 -2 44 -17z m3421 -37 c18 -8 43 -12 54 -9 27 7 31
-16 28 -153 -2 -75 -7 -117 -16 -128 -27 -33 13 -17 42 16 16 18 26 28 23 22
-3 -6 5 -16 18 -22 18 -8 22 -16 18 -41 -2 -17 -10 -36 -18 -42 -27 -22 -14
-30 15 -10 16 12 35 37 41 56 8 23 16 32 26 28 12 -4 10 -12 -8 -45 -13 -22
-34 -49 -47 -59 -37 -29 -19 -32 23 -4 20 14 40 25 45 25 4 0 17 14 29 30 24
32 52 38 90 17 21 -12 20 -14 -34 -40 -65 -32 -67 -44 -4 -22 53 19 61 19 54
0 -8 -19 7 -19 32 0 25 19 55 19 80 0 18 -14 17 -14 -16 -15 -65 -1 -66 -17
-1 -25 56 -6 96 -25 54 -25 -27 0 -93 -20 -93 -28 0 -4 28 -6 62 -4 l63 3 -30
-26 c-16 -13 -37 -23 -45 -21 -8 3 -26 7 -40 11 l-25 6 24 -20 c25 -23 71 -27
102 -11 14 8 19 7 19 -3 0 -24 -23 -37 -69 -38 l-46 -1 44 -9 c53 -10 58 -14
42 -33 -19 -23 -100 -68 -111 -61 -5 3 -18 -3 -30 -15 -21 -21 -40 -26 -40
-10 0 20 -29 9 -32 -12 -2 -17 -10 -23 -27 -23 -20 0 -27 7 -33 34 -5 18 -7
36 -4 39 10 9 36 -20 36 -40 0 -11 4 -16 11 -12 6 3 9 17 6 30 -4 21 0 24 24
24 15 0 31 -4 34 -10 10 -16 25 -12 25 6 0 10 6 14 15 10 9 -3 15 0 15 8 0 10
7 12 22 8 14 -3 19 -2 14 6 -4 7 -12 12 -18 12 -7 0 -30 9 -52 19 -23 11 -57
22 -76 26 -33 6 -34 5 -16 -10 11 -8 27 -15 36 -15 20 0 70 -23 70 -32 0 -9
-42 -15 -137 -22 -84 -6 -113 -18 -113 -49 0 -16 -12 -27 -40 -40 -39 -18 -40
-18 -61 2 -12 11 -18 24 -14 30 3 6 1 11 -6 11 -21 0 1 16 74 54 37 20 75 36
84 36 13 0 14 3 5 12 -15 15 -16 32 -2 23 6 -4 24 -10 40 -15 l29 -8 -35 34
c-40 41 -36 64 6 34 42 -30 55 -24 18 9 -32 29 -33 29 -14 50 11 12 17 23 14
26 -9 10 -68 -65 -68 -85 0 -23 -10 -25 -29 -7 -11 10 -11 8 -1 -13 l13 -25
-25 23 c-35 32 -44 27 -14 -9 l26 -31 -39 -28 c-21 -16 -52 -29 -68 -29 -15 0
-35 -1 -43 -2 -8 -1 -28 -1 -45 0 l-30 2 24 19 c16 14 19 20 8 20 -8 0 -20 -7
-27 -15 -7 -8 -18 -15 -24 -14 -27 3 -38 -2 -33 -15 4 -9 -4 -18 -21 -23 -35
-12 -62 -6 -62 15 0 14 -1 14 -12 -1 -11 -14 -15 -14 -32 -2 -14 11 -16 18 -8
28 8 10 6 16 -10 26 -15 10 -19 20 -16 47 4 36 -5 45 -20 18 -14 -25 -19 -5
-14 59 3 48 6 56 18 46 11 -9 14 -8 14 2 0 8 -4 21 -9 28 -6 9 -6 22 0 33 10
18 11 18 30 -4 18 -20 20 -21 13 -3 -12 31 -9 86 5 95 10 5 11 13 3 26 -15 28
16 49 41 27 23 -21 35 -8 14 15 -21 23 -22 42 -1 42 8 0 12 4 9 10 -3 5 5 15
19 21 14 7 23 16 20 21 -7 11 22 39 31 30 4 -4 2 4 -5 17 -8 17 -9 26 -1 34 8
8 11 6 11 -6 0 -9 5 -17 10 -17 6 0 10 6 10 14 0 9 7 12 20 9 30 -8 24 11 -7
25 -27 11 -27 12 10 7 41 -4 50 10 15 25 -18 7 -19 9 -5 9 10 1 33 -5 52 -13z
m-2945 -91 c27 -24 57 -48 66 -53 17 -9 17 -11 1 -36 -19 -28 -32 -32 -127
-40 -75 -6 -100 3 -74 25 26 21 44 73 44 124 0 43 1 45 20 35 11 -6 42 -31 70
-55z m1184 24 c2 -19 4 -44 5 -56 0 -12 12 -35 26 -51 14 -17 25 -33 25 -37 0
-4 -41 -5 -90 -3 -90 5 -130 22 -130 53 0 18 147 141 157 131 2 -2 5 -18 7
-37z m-2834 -30 c0 -5 9 -20 20 -31 14 -15 16 -24 9 -29 -8 -4 -4 -11 10 -18
25 -14 28 -49 4 -59 -10 -4 -37 -20 -60 -36 -46 -30 -73 -29 -73 4 0 11 -6 20
-12 20 -19 1 -75 53 -62 57 7 2 9 22 6 54 -4 41 -2 48 10 44 21 -8 41 -52 26
-57 -6 -2 -8 -10 -4 -16 8 -14 56 -16 56 -3 0 4 11 6 25 3 26 -5 31 8 26 66
-1 15 2 21 8 17 6 -3 11 -11 11 -16z m-150 -205 c54 -68 76 -81 41 -23 -30 49
-26 71 5 32 14 -18 29 -33 34 -33 4 0 31 16 59 35 59 41 79 46 36 9 -29 -26
-30 -26 -5 -21 24 6 24 5 -5 -19 -16 -13 -43 -28 -59 -32 -16 -4 -31 -13 -33
-19 -7 -20 29 -23 55 -5 43 30 62 34 63 14 7 -98 7 -111 -4 -121 -7 -5 -47
-11 -90 -12 -72 -3 -79 -1 -106 25 -16 16 -34 25 -40 22 -18 -12 -12 -26 11
-26 21 0 21 0 2 -15 -18 -14 -18 -14 7 -15 27 0 64 -31 52 -43 -3 -4 3 -7 15
-7 28 0 75 -41 89 -80 l12 -32 -25 16 c-28 19 -32 11 -7 -16 9 -10 13 -21 10
-24 -4 -4 -14 7 -24 25 -10 17 -21 31 -25 31 -12 0 -9 -14 8 -38 17 -25 13
-42 -4 -20 -6 7 -27 32 -46 54 -20 23 -36 51 -36 63 0 17 -4 21 -18 17 -11 -4
-28 2 -42 14 -19 17 -23 29 -21 63 2 34 0 40 -10 30 -17 -17 -26 -16 -26 2 0
8 6 15 14 15 7 0 13 5 13 11 0 7 -10 9 -25 5 -19 -5 -25 -2 -25 10 0 8 -6 14
-12 12 -20 -7 -22 -86 -3 -115 16 -24 16 -24 -7 -21 -21 3 -23 7 -23 71 0 49
4 71 14 77 12 6 10 15 -7 52 -39 79 -24 91 34 28 44 -48 76 -56 43 -11 -21 28
-21 61 0 61 5 0 23 -11 39 -25 41 -34 62 -32 29 3 -28 29 -33 42 -18 42 5 0
32 -30 61 -66z m-284 -68 c26 -29 27 -44 8 -105 -5 -17 -4 -22 4 -17 6 4 16
25 22 46 7 25 17 40 27 40 13 0 14 -7 9 -37 -3 -21 -6 -53 -6 -70 0 -18 -5
-33 -11 -33 -8 0 -10 12 -6 35 3 19 2 37 -3 40 -8 5 -12 -4 -24 -57 -6 -25
-11 -28 -47 -28 l-40 0 29 31 c46 49 66 149 31 149 -6 0 -7 -5 -4 -10 4 -6 4
-23 0 -39 -6 -26 -10 -29 -62 -34 -50 -5 -60 -3 -85 19 -38 31 -62 31 -26 0
22 -20 25 -26 14 -35 -10 -8 -22 -7 -47 3 -19 7 -39 11 -46 9 -6 -2 -18 -30
-25 -61 -10 -46 -13 -52 -18 -32 -9 35 5 88 30 122 32 44 15 46 -25 4 -36 -38
-43 -40 -25 -6 13 25 90 70 119 70 12 0 32 -5 43 -11 16 -9 19 -8 16 3 -3 7
-24 18 -49 25 -24 6 -35 12 -24 12 39 2 89 -19 111 -46 12 -16 25 -25 29 -22
3 4 -8 23 -25 42 -21 25 -44 39 -73 45 -33 7 -38 11 -24 17 12 5 32 0 57 -14
21 -11 45 -21 54 -21 9 0 21 -9 28 -20 7 -11 19 -20 26 -20 18 0 -13 59 -36
67 -22 8 -42 35 -35 46 3 5 23 -11 44 -35 21 -23 50 -56 65 -72z m64 48 c35
-62 34 -61 15 -61 -8 0 -19 13 -24 29 -6 16 -19 41 -31 55 -24 30 -26 45 -5
37 8 -3 28 -30 45 -60z m-72 28 c12 -18 12 -22 1 -22 -8 0 -19 12 -26 26 -14
31 3 29 25 -4z m5292 -32 c-6 -11 -13 -20 -16 -20 -2 0 0 9 6 20 6 11 13 20
16 20 2 0 0 -9 -6 -20z m-5241 -60 c0 -9 -6 -4 -14 10 -8 14 -14 32 -14 40 0
9 6 4 14 -10 8 -14 14 -32 14 -40z m94 -75 c-3 -9 -8 -14 -10 -11 -3 3 -2 9 2
15 9 16 15 13 8 -4z m-376 -94 c-11 -53 -15 -60 -26 -47 -23 27 7 142 30 119
5 -5 3 -37 -4 -72z m203 69 c0 -5 -6 -10 -14 -10 -8 0 -18 5 -21 10 -3 6 3 10
14 10 12 0 21 -4 21 -10z m208 -10 c-7 -10 -14 -17 -17 -15 -4 4 18 35 25 35
2 0 -1 -9 -8 -20z m-237 -17 c5 -5 -15 -9 -50 -8 -45 0 -57 3 -53 14 6 15 86
11 103 -6z m-41 -32 c25 -8 24 -8 -12 -24 -21 -9 -54 -28 -73 -43 l-35 -26 0
23 c1 56 57 88 120 70z m104 -43 c-3 -4 -14 -8 -25 -8 -11 0 -18 4 -15 8 2 4
14 8 25 8 11 0 17 -4 15 -8z m66 2 c0 -5 -7 -10 -16 -10 -8 0 -12 5 -9 10 3 6
10 10 16 10 5 0 9 -4 9 -10z m-214 -45 c-18 -27 -46 -34 -46 -10 0 8 6 15 14
15 7 0 19 7 26 15 20 24 25 9 6 -20z m72 -18 c15 -3 14 -5 -3 -11 -11 -4 -27
-11 -35 -15 -34 -17 -42 1 -13 31 21 22 29 26 31 14 2 -8 11 -17 20 -19z m174
1 c-7 -7 -12 -8 -12 -2 0 14 12 26 19 19 2 -3 -1 -11 -7 -17z m58 -13 c9 -10
9 -15 1 -15 -6 0 -11 5 -11 11 0 6 -7 8 -16 5 -8 -3 -12 -2 -9 4 9 14 21 12
35 -5z m-214 -42 c-14 -14 -28 -24 -31 -21 -8 8 26 48 42 48 12 0 9 -7 -11
-27z m74 -27 c5 -13 16 -29 26 -34 10 -6 13 -12 6 -16 -6 -3 -13 -2 -17 4 -3
5 -11 10 -16 10 -6 0 -7 -4 -4 -10 13 -20 -22 -9 -45 14 -27 30 -21 56 15 56
18 0 28 -7 35 -24z m5195 -636 c3 -5 0 -10 -8 -10 -22 0 -53 -50 -37 -60 7 -5
10 -15 7 -24 -3 -8 -1 -18 6 -22 7 -4 9 -4 5 0 -11 12 25 44 39 34 17 -14 27
10 12 30 -11 14 -11 15 1 5 22 -20 42 -16 35 7 -8 26 13 34 61 25 26 -4 33
-10 26 -17 -6 -6 -8 -17 -5 -24 6 -16 33 -19 33 -4 0 6 -5 10 -11 10 -5 0 -7
5 -4 10 11 18 45 11 45 -9 0 -11 -4 -23 -10 -26 -5 -3 -14 -24 -20 -45 -6 -22
-15 -40 -19 -40 -5 0 -9 -11 -10 -25 -5 -66 -4 -64 -25 -49 -11 8 -30 14 -41
14 -20 -1 -20 -1 0 -16 60 -44 72 -64 32 -57 -15 3 -41 -8 -75 -31 -61 -42
-79 -45 -88 -11 -3 13 -14 27 -24 30 -24 8 -58 47 -44 52 7 2 9 22 6 54 -4 43
-2 49 12 43 9 -3 16 -12 16 -20 0 -8 5 -14 10 -14 6 0 10 -5 10 -10 0 -7 -6
-7 -20 0 -25 13 -25 7 -3 -20 20 -22 56 -26 70 -7 6 6 13 25 17 41 6 25 5 28
-11 21 -45 -18 -53 -18 -53 4 0 12 -4 20 -9 17 -5 -3 -14 1 -20 8 -10 12 -8
13 8 9 15 -4 21 -1 21 10 0 9 -4 18 -8 21 -9 5 -7 69 2 93 6 15 62 18 71 3z
m-5128 -91 c15 -7 38 -11 50 -11 12 1 25 -4 30 -11 11 -17 4 -246 -8 -269 -15
-28 -6 -31 19 -8 21 19 26 33 23 53 -1 5 3 6 9 2 6 -3 8 -10 5 -15 -3 -4 7
-11 21 -14 24 -6 26 -10 21 -43 -4 -19 -14 -45 -24 -56 -18 -19 -17 -20 4 -9
29 16 63 60 63 83 0 20 15 25 25 9 9 -14 -20 -64 -56 -94 -17 -15 -29 -29 -26
-33 7 -7 105 57 131 86 22 24 54 27 81 7 17 -12 16 -15 -27 -34 -25 -11 -49
-25 -52 -31 -9 -14 -9 -14 39 4 52 19 66 19 58 0 -5 -14 -1 -14 31 1 33 16 38
16 68 1 l33 -16 -42 0 c-65 -1 -60 -18 7 -26 33 -4 60 -10 60 -14 0 -4 -25
-13 -55 -20 -30 -7 -55 -16 -55 -20 0 -4 29 -5 65 -3 36 2 65 2 65 -1 0 -3
-14 -14 -31 -25 -24 -15 -39 -18 -65 -12 -19 4 -34 4 -34 0 0 -15 61 -32 95
-27 25 4 35 2 35 -8 0 -17 -22 -25 -67 -25 -44 0 -40 -7 7 -15 41 -7 42 -8 34
-28 -8 -21 -94 -69 -111 -63 -7 3 -13 2 -13 -3 0 -14 -54 -34 -58 -22 -2 6
-12 11 -23 11 -13 0 -19 7 -19 21 0 20 -3 21 -56 15 -68 -8 -92 -20 -100 -49
-3 -12 -21 -30 -40 -40 -33 -16 -36 -16 -54 1 -31 29 -30 64 1 72 15 4 44 19
65 34 21 14 46 26 55 26 13 0 16 6 11 23 -4 18 -3 20 9 11 8 -6 26 -14 40 -18
27 -6 27 -6 -7 28 -44 44 -44 64 0 37 48 -30 68 -26 22 5 l-38 26 23 24 c12
13 19 27 16 31 -11 10 -45 -27 -64 -68 -14 -32 -19 -36 -31 -26 -13 10 -14 8
-7 -12 l7 -23 -21 21 c-32 32 -49 25 -18 -7 15 -15 27 -31 27 -34 0 -14 -78
-57 -105 -57 -16 0 -37 -1 -45 -2 -8 -1 -28 -1 -45 0 l-30 1 25 20 c19 15 21
20 9 20 -9 0 -22 -7 -29 -15 -7 -8 -16 -12 -21 -9 -13 8 -34 -8 -34 -26 0 -8
-8 -15 -17 -15 -9 0 -19 -3 -23 -7 -9 -9 -45 3 -45 16 0 6 -4 5 -9 -3 -8 -12
-12 -12 -24 -2 -21 17 -15 55 13 94 13 18 17 26 9 20 -12 -10 -18 -10 -27 -1
-9 9 -12 6 -12 -14 0 -15 -4 -30 -10 -33 -10 -6 -14 12 -11 55 l1 25 -19 -23
-20 -23 1 63 c1 68 6 88 19 67 13 -22 22 -3 9 21 -6 11 -8 30 -5 41 7 21 7 21
31 -2 28 -26 31 -19 8 16 -14 21 -14 26 1 55 9 17 13 35 10 40 -16 27 -26 123
-15 156 10 30 10 37 -5 48 -14 10 -16 18 -8 42 9 28 12 29 79 31 50 1 63 -1
46 -8 -29 -11 -20 -29 11 -23 12 2 16 2 10 -2 -18 -8 -16 -27 2 -20 9 3 15 0
15 -9 0 -8 5 -15 10 -15 6 0 10 7 10 15 0 12 7 14 26 9 19 -5 25 -4 20 5 -4 6
-13 11 -21 11 -8 0 -17 5 -21 12 -5 8 2 9 24 5 40 -8 51 8 15 21 -25 9 -25 11
-6 11 12 1 34 -4 50 -10z m5113 -103 c0 -2 -7 -7 -16 -10 -8 -3 -12 -2 -9 4 6
10 25 14 25 6z m-145 -112 c9 -4 34 -33 56 -66 22 -32 45 -56 50 -52 7 4 6 12
-3 22 -34 43 -52 94 -20 57 41 -48 48 -49 94 -17 78 53 86 55 99 30 11 -20 10
-22 -3 -10 -12 10 -21 10 -42 1 -26 -12 -35 -29 -15 -29 6 0 19 5 29 10 15 8
21 6 30 -9 12 -24 -5 -39 -18 -16 -7 14 -14 13 -53 -9 -24 -14 -52 -26 -61
-26 -20 0 -24 -26 -5 -33 6 -3 31 6 55 20 34 20 46 22 58 13 18 -16 18 -46 -1
-54 -23 -9 -18 -28 6 -21 15 5 22 2 26 -14 3 -13 14 -21 27 -21 17 0 19 -2 6
-11 -11 -8 -12 -12 -2 -16 8 -3 5 -10 -10 -23 -30 -24 -59 -11 -50 22 5 19 3
21 -9 11 -9 -7 -51 -13 -98 -14 -80 -2 -83 -1 -105 26 -19 23 -26 26 -42 17
-18 -10 -18 -11 5 -20 19 -7 21 -11 10 -18 -10 -6 -7 -10 16 -14 18 -3 34 -14
40 -28 5 -12 16 -22 24 -22 17 0 84 -50 77 -57 -3 -3 -1 -14 5 -24 9 -18 0
-26 -15 -12 -11 11 -46 11 -46 0 0 -6 7 -19 17 -29 9 -10 14 -21 10 -24 -3 -3
-14 4 -24 16 -10 11 -30 34 -45 49 -15 15 -30 40 -34 55 -5 20 -11 25 -24 21
-28 -9 -60 38 -54 81 4 32 2 34 -16 24 -16 -9 -20 -8 -20 5 0 8 5 15 10 15 6
0 10 5 10 11 0 7 -10 9 -25 5 -18 -5 -25 -2 -25 9 0 33 -18 12 -23 -27 -5 -33
-2 -49 13 -69 l19 -27 -24 2 c-24 1 -25 3 -25 79 0 62 -3 77 -15 77 -8 0 -15
6 -15 13 0 6 -14 32 -30 56 -33 48 -32 65 0 36 20 -18 38 -47 59 -92 6 -13 15
-23 21 -23 15 0 12 11 -10 45 -20 30 -27 75 -12 75 4 0 27 -21 52 -46 45 -47
65 -47 35 0 -17 26 -15 56 4 56 5 0 24 -12 41 -26 40 -35 52 -22 15 16 -29 31
-29 35 0 24z m-261 -99 c11 -17 16 -41 14 -71 l-3 -45 -62 -4 c-36 -3 -63 0
-63 5 0 13 -49 44 -57 36 -4 -3 3 -13 15 -22 12 -8 22 -19 22 -23 0 -17 -32
-21 -58 -7 -34 17 -62 5 -62 -27 -1 -12 -7 -35 -15 -52 l-13 -30 -1 37 c-1 45
13 86 41 115 35 37 11 39 -27 3 -19 -19 -35 -29 -35 -24 0 17 23 40 63 62 42
24 78 28 108 12 10 -6 19 -7 19 -2 0 12 -46 32 -71 32 -11 0 -30 -5 -42 -11
-22 -10 -22 -10 -2 6 32 26 103 13 138 -26 35 -38 47 -31 18 10 -12 16 -38 35
-59 41 -49 16 -63 30 -30 30 14 0 31 -6 37 -14 7 -8 26 -18 42 -21 16 -4 39
-16 49 -28 11 -11 22 -18 25 -15 8 7 -16 58 -27 58 -15 0 -49 40 -43 51 7 10
50 -31 79 -76z m6 63 c20 -22 26 -38 13 -38 -5 0 -16 14 -25 30 -20 36 -16 38
12 8z m-94 -26 c-4 -3 -14 2 -24 12 -16 18 -16 18 6 6 13 -6 21 -14 18 -18z
m-4346 -29 c0 -5 -10 -19 -21 -33 l-20 -25 16 33 c15 30 25 41 25 25z m4500
-38 c6 -19 16 -35 21 -35 5 0 8 -27 8 -59 -2 -71 -19 -108 -19 -41 0 33 -3 41
-11 33 -7 -7 -13 -23 -14 -37 -5 -38 -13 -46 -52 -46 l-35 0 29 33 c15 19 33
32 39 30 6 -2 19 14 27 36 16 38 15 43 -3 86 -11 25 -16 43 -11 40 5 -3 15
-21 21 -40z m-30 -92 c-11 -17 -11 -17 -6 0 3 10 7 33 8 50 l1 32 4 -32 c2
-18 -1 -41 -7 -50z m140 13 c0 -2 -8 -10 -17 -17 -16 -13 -17 -12 -4 4 13 16
21 21 21 13z m-381 -64 c-6 -15 -10 -29 -10 -32 1 -3 -2 -20 -5 -38 -6 -30 -8
-32 -21 -19 -15 14 -14 19 13 114 2 7 10 10 18 7 12 -4 13 -11 5 -32z m196 28
c3 -5 -1 -10 -9 -10 -8 0 -18 5 -21 10 -3 6 1 10 9 10 8 0 18 -4 21 -10z m205
-10 c-6 -11 -13 -20 -16 -20 -2 0 0 9 6 20 6 11 13 20 16 20 2 0 0 -9 -6 -20z
m-252 -6 c38 -11 24 -19 -33 -19 -53 0 -63 4 -48 18 8 9 50 9 81 1z m684 -8
c10 -7 15 -16 11 -19 -3 -4 6 -7 21 -7 33 0 86 -49 86 -80 0 -12 -4 -18 -10
-15 -6 4 -10 -5 -10 -19 0 -14 -4 -26 -10 -26 -5 0 -10 7 -10 17 0 9 -3 13 -7
9 -7 -6 -35 37 -49 77 -4 11 -13 16 -22 12 -8 -3 -23 -3 -33 0 -15 5 -16 10
-7 35 11 33 15 35 40 16z m-712 -35 l25 -8 -30 -14 c-16 -8 -45 -24 -64 -36
-42 -28 -51 -29 -46 -2 5 27 24 49 50 59 24 10 32 10 65 1z m115 -40 c-8 -14
-45 -14 -45 -1 0 5 6 7 14 4 8 -3 17 0 21 6 4 6 9 9 12 6 3 -2 2 -9 -2 -15z
m55 -1 c0 -5 -4 -10 -10 -10 -5 0 -10 5 -10 10 0 6 5 10 10 10 6 0 10 -4 10
-10z m-202 -32 c-15 -27 -28 -38 -45 -38 -22 0 -14 20 11 30 13 5 27 14 31 19
12 21 15 11 3 -11z m224 0 c-7 -7 -12 -8 -12 -2 0 14 12 26 19 19 2 -3 -1 -11
-7 -17z m-172 -12 c0 -8 6 -16 13 -19 6 -2 -4 -11 -23 -19 -45 -20 -58 -8 -28
25 27 29 38 33 38 13z m190 -16 c-8 -5 -17 -7 -19 -4 -3 3 1 9 9 14 8 5 17 7
19 4 3 -3 -1 -9 -9 -14z m66 -28 c-4 -3 -14 2 -24 12 -16 18 -16 18 6 6 13 -6
21 -14 18 -18z m244 -12 c0 -15 -5 -12 -26 11 -19 22 -19 22 4 10 12 -6 22
-16 22 -21z m-450 3 c-1 -10 -50 -47 -50 -38 0 17 22 45 35 45 8 0 15 -3 15
-7z m-4395 -45 c8 -18 14 -27 15 -20 0 17 20 15 20 -3 0 -20 -50 -32 -61 -14
-12 20 -11 69 1 69 6 0 17 -15 25 -32z m4439 16 c9 -3 16 -12 16 -19 0 -7 7
-18 15 -25 8 -7 15 -17 15 -22 0 -6 -7 -4 -17 3 -13 11 -17 11 -20 2 -7 -20
-23 -16 -48 11 -34 36 -9 68 39 50z m-4439 -648 c18 -13 18 -14 -3 -20 -12 -4
-23 -15 -23 -24 -5 -54 -1 -76 12 -80 8 -3 11 -1 6 3 -4 5 0 17 9 27 14 15 20
16 32 5 13 -10 14 -8 9 18 -3 17 -4 24 -1 18 9 -20 34 -15 34 6 0 11 5 23 11
26 14 9 81 -4 74 -15 -7 -11 5 -40 17 -40 6 0 7 7 4 15 -6 16 19 33 31 22 8
-9 -29 -127 -40 -127 -5 0 -7 -7 -4 -15 4 -8 2 -17 -3 -20 -6 -4 -10 -17 -10
-31 0 -24 -1 -24 -22 -10 -12 9 -32 16 -43 15 -20 0 -20 0 -1 -12 30 -18 66
-55 66 -67 0 -7 -5 -7 -17 1 -21 12 -49 2 -102 -37 -41 -29 -65 -28 -69 4 -2
12 -9 22 -15 22 -18 1 -74 53 -61 57 7 2 9 22 6 54 -4 43 -2 49 12 43 10 -4
16 -1 16 9 0 8 7 18 16 21 15 6 15 8 -1 26 -10 11 -13 20 -7 20 7 0 9 13 5 36
-5 29 -2 40 12 50 23 17 27 17 50 0z m3225 -220 c0 -2 -7 -7 -16 -10 -8 -3
-12 -2 -9 4 6 10 25 14 25 6z m140 -148 c0 -6 -6 -5 -14 1 -11 10 -20 10 -36
1 -12 -6 -24 -9 -27 -7 -3 3 8 12 24 20 28 15 53 8 53 -15z m-3860 -4 c0 -2
-9 0 -20 6 -11 6 -20 13 -20 16 0 2 9 0 20 -6 11 -6 20 -13 20 -16z"/>
<path d="M1040 6051 c0 -11 -41 -53 -65 -67 -29 -16 -30 -34 -1 -34 18 0 30 9
41 30 16 31 35 40 35 17 0 -20 -30 -57 -46 -57 -8 0 -14 -5 -14 -11 0 -7 11
-9 27 -6 24 4 26 4 10 -8 -21 -15 -22 -25 -3 -25 36 0 66 111 34 123 -10 4
-10 7 0 18 16 18 15 29 -3 29 -8 0 -15 -4 -15 -9z"/>
<path d="M866 5933 c-4 -9 -2 -21 4 -27 16 -16 12 -30 -5 -16 -25 21 -30 2 -5
-20 25 -21 60 -27 60 -9 0 5 5 7 10 4 6 -3 11 -1 11 4 3 21 4 26 13 39 12 20
1 25 -24 12 -27 -14 -52 -6 -44 15 3 8 2 15 -4 15 -5 0 -13 -8 -16 -17z m64
-37 c0 -2 -7 -7 -16 -10 -8 -3 -12 -2 -9 4 6 10 25 14 25 6z"/>
<path d="M980 5830 c0 -5 7 -10 15 -10 8 0 15 5 15 10 0 6 -7 10 -15 10 -8 0
-15 -4 -15 -10z"/>
<path d="M862 5818 c3 -7 16 -13 29 -14 14 0 29 -3 35 -6 11 -7 42 8 33 16 -3
3 -27 8 -53 11 -37 5 -47 3 -44 -7z"/>
<path d="M5586 5981 c5 -11 3 -13 -9 -8 -14 5 -16 2 -11 -17 7 -30 -12 -43
-34 -23 -15 14 -19 13 -32 -1 -13 -14 -12 -15 3 -9 12 5 18 0 23 -18 5 -19 10
-22 27 -16 12 5 22 12 23 17 0 5 6 20 12 34 l11 25 0 -27 c1 -19 -8 -34 -29
-50 -34 -25 -37 -33 -13 -42 10 -4 28 2 45 14 36 27 38 7 3 -43 -13 -20 -20
-39 -15 -42 18 -11 50 58 50 110 l0 50 -31 -38 c-17 -20 -38 -37 -47 -36 -13
0 -13 2 3 9 47 19 64 68 34 101 -11 13 -17 18 -13 10z"/>
<path d="M5373 5949 c-16 -20 35 -83 60 -74 21 9 13 23 -18 35 -13 5 -25 19
-27 31 -2 19 -5 20 -15 8z m57 -59 c0 -5 -5 -10 -11 -10 -5 0 -7 5 -4 10 3 6
8 10 11 10 2 0 4 -4 4 -10z"/>
<path d="M5415 5949 c-4 -6 -5 -13 -2 -16 7 -7 27 6 27 18 0 12 -17 12 -25 -2z"/>
<path d="M5446 5931 c-4 -7 -5 -15 -2 -18 9 -9 19 4 14 18 -4 11 -6 11 -12 0z"/>
<path d="M5360 5898 c0 -18 36 -66 43 -58 3 3 -6 21 -19 40 -14 20 -24 28 -24
18z"/>
<path d="M5351 5838 c10 -36 44 -76 55 -65 4 4 -2 17 -13 30 -11 12 -24 32
-28 45 -3 12 -10 22 -15 22 -5 0 -4 -14 1 -32z"/>
<path d="M5520 5822 c0 -17 -48 -26 -65 -12 -9 8 -15 8 -15 2 0 -6 9 -14 20
-17 23 -7 26 -25 8 -43 -9 -9 -5 -12 20 -12 34 0 43 14 16 24 -15 6 -14 9 6
31 13 14 20 28 17 32 -4 3 -7 1 -7 -5z"/>
<path d="M5611 5718 c-13 -35 -57 -67 -102 -74 -42 -7 -44 -18 -3 -28 37 -10
89 28 109 78 9 21 14 41 11 44 -3 2 -10 -7 -15 -20z"/>
<path d="M5381 5691 c11 -16 32 -34 45 -39 17 -8 13 -1 -16 28 -47 47 -59 52
-29 11z"/>
<path d="M5493 5693 c9 -2 23 -2 30 0 6 3 -1 5 -18 5 -16 0 -22 -2 -12 -5z"/>
<path d="M5637 5659 c-15 -34 -36 -49 -108 -78 l-24 -10 23 0 c56 -2 143 74
129 112 -3 7 -12 -4 -20 -24z"/>
<path d="M5350 5673 c0 -19 44 -65 74 -79 26 -11 27 -13 9 -14 -28 0 -53 -10
-53 -20 0 -5 12 -5 28 -1 15 4 42 4 60 -1 18 -5 39 -7 45 -5 7 3 -2 8 -20 12
-21 5 -30 12 -26 21 3 8 -1 14 -11 14 -9 0 -37 19 -61 41 -25 23 -45 37 -45
32z"/>
<path d="M5641 5607 c-11 -18 -31 -38 -43 -44 -39 -19 -90 -33 -99 -27 -5 3
-30 -7 -55 -23 -73 -45 -93 -65 -35 -34 31 17 61 26 74 23 14 -3 18 -1 13 6
-8 14 8 16 32 3 9 -4 31 -11 47 -15 l30 -6 -24 20 c-30 26 -21 36 19 20 17 -7
34 -9 38 -5 4 4 1 10 -5 12 -7 3 -13 9 -13 14 0 5 14 3 30 -6 34 -17 38 -11
13 17 -16 18 -16 19 5 25 12 3 22 9 22 14 0 5 -6 6 -14 3 -11 -4 -13 0 -9 15
8 31 -2 26 -26 -12z"/>
<path d="M5903 5590 c-18 -11 -33 -25 -33 -31 0 -8 4 -8 13 -2 6 6 29 16 50
22 20 7 37 17 37 22 0 15 -33 10 -67 -11z"/>
<path d="M5322 5565 c6 -15 20 -25 31 -25 20 0 19 1 -3 25 -13 14 -27 25 -32
25 -4 0 -2 -11 4 -25z"/>
<path d="M5880 5495 c15 -18 69 -45 90 -45 25 0 6 19 -37 36 -27 11 -52 21
-58 23 -5 2 -3 -4 5 -14z"/>
<path d="M5329 5470 c-2 -14 -4 -60 -2 -60 10 0 20 39 12 51 -5 7 -9 12 -10 9z"/>
<path d="M5660 5430 c-8 -5 -26 -10 -40 -10 -14 0 -32 -5 -40 -11 -11 -8 -5
-9 26 -5 41 6 112 36 84 36 -8 0 -22 -5 -30 -10z"/>
<path d="M820 5662 c0 -14 65 -102 76 -102 6 0 28 9 50 19 32 16 36 21 21 27
-10 3 -23 2 -30 -5 -20 -20 -47 -11 -68 23 -18 31 -49 55 -49 38z"/>
<path d="M3165 3073 c0 -165 -16 -230 -71 -289 -19 -22 -56 -70 -82 -109 -40
-61 -46 -77 -46 -120 2 -89 42 -140 143 -180 48 -19 76 -23 118 -20 64 5 85
19 81 54 -3 24 -6 26 -48 24 -25 -1 -63 -5 -86 -8 -38 -6 -42 -4 -68 30 -29
38 -43 97 -32 137 5 20 42 67 102 129 18 19 57 166 48 181 -3 5 1 17 10 27 12
13 15 32 12 75 -2 31 0 59 5 62 5 3 9 25 9 48 0 54 -30 96 -68 96 l-27 0 0
-137z"/>
<path d="M3354 2295 c-25 -34 -27 -40 -21 -112 3 -42 1 -85 -4 -94 -12 -22 15
-39 57 -37 63 4 208 -26 287 -58 45 -19 87 -34 93 -34 7 0 19 -6 26 -13 7 -8
25 -17 40 -20 43 -11 43 19 2 109 -46 100 -120 173 -209 205 -33 13 -92 38
-131 56 -90 42 -106 42 -140 -2z"/>
<path d="M2900 2295 c-25 -13 -78 -36 -117 -52 -102 -39 -171 -104 -222 -208
-59 -119 -50 -121 154 -47 28 10 59 23 70 29 11 6 31 11 45 11 14 -1 50 2 80
7 30 4 69 8 85 10 46 3 75 15 75 30 0 8 -4 16 -9 19 -5 3 -7 43 -4 88 5 75 3
86 -17 111 -27 35 -77 36 -140 2z"/>
<path d="M2697 1776 c-26 -12 -46 -32 -47 -47 -1 -38 313 -58 698 -45 111 4
170 2 185 -5 33 -17 78 -61 88 -87 14 -36 37 -38 70 -6 50 48 49 69 -7 120
-27 24 -67 49 -88 55 -25 7 -113 9 -235 7 -194 -5 -592 5 -621 15 -8 3 -28 0
-43 -7z"/>
<path d="M5841 4599 c-12 -16 -33 -34 -47 -39 -28 -11 -33 -40 -6 -40 18 0 92
80 92 99 0 20 -16 11 -39 -20z"/>
<path d="M5865 4575 c-17 -51 -26 -65 -40 -65 -8 0 -15 -5 -15 -11 0 -7 11 -9
27 -6 26 5 26 4 9 -9 -22 -16 -17 -28 7 -18 26 10 41 71 27 109 l-8 20 -7 -20z"/>
<path d="M5800 4400 c0 -5 5 -10 10 -10 6 0 10 5 10 10 0 6 -4 10 -10 10 -5 0
-10 -4 -10 -10z"/>
<path d="M5683 4387 c2 -6 12 -12 23 -12 10 -1 24 -4 31 -8 13 -8 43 1 43 14
0 5 -8 10 -17 10 -10 1 -33 3 -51 5 -24 3 -32 0 -29 -9z"/>
<path d="M455 4520 c-3 -5 -1 -10 4 -10 6 0 11 5 11 10 0 6 -2 10 -4 10 -3 0
-8 -4 -11 -10z"/>
<path d="M645 4515 c5 -16 4 -18 -6 -7 -18 17 -34 15 -19 -3 10 -13 10 -19 -3
-33 -18 -20 -7 -49 14 -38 8 4 5 0 -5 -8 -15 -12 -16 -16 -5 -16 8 0 21 6 29
13 12 10 12 9 0 -6 -9 -12 -22 -17 -38 -14 -21 4 -22 3 -9 -10 13 -13 18 -13
46 1 19 10 31 12 31 6 0 -17 -21 -54 -38 -66 -17 -12 -3 -27 15 -16 19 13 39
67 38 105 -2 36 -15 67 -15 34 0 -9 -4 -17 -8 -17 -5 0 -7 12 -5 28 3 15 -3
35 -12 47 l-17 20 7 -20z m15 -39 c0 -15 -18 -31 -26 -23 -7 7 7 37 17 37 5 0
9 -6 9 -14z"/>
<path d="M424 4486 c-10 -27 44 -84 67 -70 16 10 10 23 -18 36 -17 9 -27 20
-25 31 4 21 -16 23 -24 3z"/>
<path d="M477 4493 c-10 -9 -9 -23 2 -23 5 0 11 7 15 15 5 15 -5 20 -17 8z"/>
<path d="M570 4478 c0 -9 5 -20 10 -23 6 -4 8 -10 5 -15 -3 -5 0 -12 6 -16 9
-5 10 1 5 22 -9 35 -26 56 -26 32z"/>
<path d="M501 4464 c0 -11 3 -14 6 -6 3 7 2 16 -1 19 -3 4 -6 -2 -5 -13z"/>
<path d="M410 4443 c0 -7 11 -25 25 -40 32 -36 32 -17 0 22 -13 17 -24 25 -25
18z"/>
<path d="M404 4394 c3 -9 9 -27 12 -40 5 -21 30 -44 48 -44 3 0 -9 23 -26 50
-31 50 -46 65 -34 34z"/>
<path d="M492 4360 c2 -8 14 -19 26 -25 25 -11 28 -25 10 -43 -9 -9 -6 -12 15
-12 28 0 37 15 15 23 -9 3 -5 13 11 31 14 14 22 28 19 31 -3 3 -11 -1 -18 -10
-16 -20 -39 -19 -63 3 -16 13 -19 14 -15 2z"/>
<path d="M670 4268 c0 -30 -46 -69 -95 -82 l-50 -13 28 -12 c30 -12 70 2 95
32 20 23 43 87 32 87 -5 0 -10 -6 -10 -12z"/>
<path d="M440 4230 c12 -17 31 -35 42 -41 15 -8 12 0 -13 30 -39 47 -61 55
-29 11z"/>
<path d="M543 4233 c9 -2 23 -2 30 0 6 3 -1 5 -18 5 -16 0 -22 -2 -12 -5z"/>
<path d="M689 4198 c-10 -24 -30 -41 -69 -60 -39 -20 -48 -28 -32 -28 47 0
112 50 127 98 10 34 -10 26 -26 -10z"/>
<path d="M409 4203 c24 -41 48 -64 79 -72 35 -10 45 3 11 14 -12 4 -36 22 -53
41 -33 36 -53 45 -37 17z"/>
<path d="M710 4170 c0 -5 -14 -25 -30 -44 -27 -31 -68 -48 -120 -51 -24 -1
-60 -16 -60 -24 0 -5 11 -8 25 -8 13 0 22 3 19 8 -3 5 4 9 15 9 11 0 22 -4 25
-9 7 -11 66 -20 66 -10 0 4 -9 11 -21 14 -14 5 -18 10 -11 17 6 6 17 6 30 -1
32 -17 44 -14 36 11 -7 22 -6 22 20 5 28 -19 32 -16 15 14 -9 17 -7 21 10 26
12 3 21 10 21 15 0 6 -7 7 -16 4 -12 -4 -14 -1 -9 14 4 11 2 20 -4 20 -6 0
-11 -4 -11 -10z"/>
<path d="M953 4128 c-40 -28 -43 -44 -5 -25 15 8 40 17 55 21 15 4 25 11 22
16 -10 16 -38 11 -72 -12z"/>
<path d="M373 4116 c4 -10 7 -24 7 -31 0 -8 7 -11 20 -8 26 7 25 14 -7 37 -24
18 -26 18 -20 2z"/>
<path d="M440 4105 c-12 -15 -11 -16 16 -9 35 9 40 9 84 -1 24 -5 32 -4 25 3
-5 6 -33 14 -60 17 -41 6 -54 4 -65 -10z"/>
<path d="M460 4025 c-14 -8 -20 -14 -14 -15 5 0 19 7 30 15 24 18 16 19 -16 0z"/>
<path d="M714 3970 c-5 -5 -25 -12 -42 -14 -18 -2 -36 -7 -40 -11 -12 -13 73
4 104 20 24 12 26 15 9 15 -12 0 -25 -4 -31 -10z"/>
<path d="M5640 4231 c0 -15 26 -59 50 -84 l23 -24 38 21 c42 23 53 43 17 31
-47 -14 -62 -10 -83 22 -20 32 -45 50 -45 34z"/>
<path d="M5586 3131 c5 -11 3 -13 -9 -8 -14 5 -16 2 -11 -17 7 -31 -12 -43
-35 -22 -17 15 -19 15 -25 1 -3 -9 -2 -13 4 -10 5 3 12 -5 16 -19 5 -20 10
-23 27 -17 11 4 26 23 33 42 12 33 13 33 13 7 1 -19 -8 -34 -29 -50 -16 -12
-30 -25 -30 -29 0 -16 34 -18 56 -4 42 28 46 15 9 -38 -13 -20 -20 -39 -15
-42 18 -11 50 58 50 110 l0 50 -31 -38 c-17 -20 -38 -37 -47 -36 -13 0 -12 2
4 9 23 9 54 47 54 66 0 7 -9 22 -21 35 -11 13 -17 18 -13 10z"/>
<path d="M5520 2972 c0 -17 -48 -26 -65 -12 -9 8 -15 8 -15 2 0 -6 9 -14 20
-17 23 -7 26 -25 8 -43 -9 -9 -6 -12 14 -12 32 0 45 15 21 24 -14 6 -13 10 7
31 13 14 20 28 17 32 -4 3 -7 1 -7 -5z"/>
<path d="M5611 2868 c-13 -35 -57 -67 -102 -74 -42 -7 -44 -18 -3 -28 37 -10
89 28 109 78 9 21 14 41 11 44 -3 2 -10 -7 -15 -20z"/>
<path d="M5370 2865 c0 -16 33 -52 60 -65 l25 -11 -24 19 c-13 11 -32 30 -42
43 -10 13 -19 20 -19 14z"/>
<path d="M5493 2843 c9 -2 23 -2 30 0 6 3 -1 5 -18 5 -16 0 -22 -2 -12 -5z"/>
<path d="M5637 2809 c-15 -34 -36 -49 -108 -78 l-24 -10 23 0 c56 -2 143 74
129 112 -3 7 -12 -4 -20 -24z"/>
<path d="M5350 2823 c0 -19 44 -65 74 -79 26 -11 27 -13 9 -14 -28 0 -53 -10
-53 -20 0 -5 12 -5 28 -1 15 4 42 4 60 -1 18 -5 39 -7 45 -5 7 3 -2 8 -20 12
-21 5 -30 12 -26 21 3 8 -1 14 -11 14 -9 0 -37 19 -61 41 -25 23 -45 37 -45
32z"/>
<path d="M5641 2757 c-11 -18 -31 -38 -43 -44 -40 -20 -90 -33 -100 -27 -8 5
-88 -43 -88 -53 0 -2 12 3 28 10 15 7 35 12 46 9 11 -2 16 0 12 7 -9 13 9 14
32 2 9 -4 31 -11 47 -15 l30 -6 -24 20 c-29 25 -23 34 13 20 31 -11 57 -3 35
11 -21 13 7 12 32 -1 23 -13 25 -3 3 21 -14 16 -14 18 5 24 12 3 21 10 21 15
0 5 -6 7 -14 4 -11 -4 -13 0 -9 15 8 31 -2 26 -26 -12z"/>
<path d="M5903 2740 c-18 -11 -33 -25 -33 -31 0 -8 4 -8 13 -2 6 6 29 16 50
22 20 7 37 17 37 22 0 15 -33 10 -67 -11z"/>
<path d="M5322 2715 c6 -15 20 -25 31 -25 20 0 19 1 -3 25 -13 14 -27 25 -32
25 -4 0 -2 -11 4 -25z"/>
<path d="M5880 2645 c15 -18 69 -45 90 -45 25 0 6 19 -37 36 -27 11 -52 21
-58 23 -5 2 -3 -4 5 -14z"/>
<path d="M5330 2620 c-1 -3 -3 -18 -5 -35 -4 -27 -3 -28 10 -12 7 10 22 25 32
33 17 14 17 14 -4 5 -16 -8 -23 -8 -26 2 -3 6 -6 10 -7 7z"/>
<path d="M5650 2579 c-14 -4 -38 -11 -54 -14 -15 -3 -26 -8 -23 -11 9 -9 84 6
104 21 20 16 11 17 -27 4z"/>
<path d="M840 3040 c0 -5 5 -10 10 -10 6 0 10 5 10 10 0 6 -4 10 -10 10 -5 0
-10 -4 -10 -10z"/>
<path d="M980 2980 c0 -5 7 -10 15 -10 8 0 15 5 15 10 0 6 -7 10 -15 10 -8 0
-15 -4 -15 -10z"/>
<path d="M862 2968 c3 -7 16 -13 29 -14 14 0 29 -3 35 -6 11 -7 42 8 33 16 -3
3 -27 8 -53 11 -37 5 -47 3 -44 -7z"/>
<path d="M820 2812 c0 -12 55 -88 70 -97 16 -10 93 26 81 38 -5 5 -17 5 -29
-2 -35 -19 -51 -13 -77 29 -23 37 -45 52 -45 32z"/>
<path d="M5841 1749 c-12 -16 -33 -34 -47 -39 -28 -11 -33 -40 -6 -40 18 0 92
80 92 99 0 20 -16 11 -39 -20z"/>
<path d="M5856 1699 c-4 -19 -13 -33 -26 -36 -27 -7 -25 -23 3 -23 17 0 19 -2
7 -10 -8 -5 -11 -12 -7 -16 4 -4 18 3 31 15 22 20 25 39 17 94 -3 19 -19 4
-25 -24z"/>
<path d="M5800 1550 c0 -5 7 -10 16 -10 8 0 12 5 9 10 -3 6 -10 10 -16 10 -5
0 -9 -4 -9 -10z"/>
<path d="M5683 1537 c2 -6 12 -12 23 -12 10 -1 24 -4 31 -8 13 -8 43 1 43 14
0 5 -8 10 -17 10 -10 1 -33 3 -51 5 -24 3 -32 0 -29 -9z"/>
<path d="M455 1670 c-3 -5 -1 -10 4 -10 6 0 11 5 11 10 0 6 -2 10 -4 10 -3 0
-8 -4 -11 -10z"/>
<path d="M645 1665 c5 -16 4 -18 -6 -7 -18 17 -34 15 -19 -3 10 -13 10 -19 -3
-33 -18 -20 -7 -49 14 -38 8 4 6 1 -3 -7 -10 -8 -14 -18 -10 -22 4 -5 -2 -5
-13 -1 -18 7 -19 6 -4 -9 15 -16 19 -16 48 -1 19 10 31 12 31 6 0 -17 -21 -54
-38 -66 -17 -12 -3 -27 15 -16 20 13 40 67 38 105 -2 36 -15 66 -15 34 0 -9
-4 -17 -8 -17 -5 0 -7 12 -5 28 3 15 -3 35 -12 47 l-17 20 7 -20z m15 -39 c0
-15 -18 -31 -26 -23 -7 7 7 37 17 37 5 0 9 -6 9 -14z m0 -50 c0 -2 -8 -10 -17
-17 -16 -13 -17 -12 -4 4 13 16 21 21 21 13z"/>
<path d="M424 1636 c-10 -27 44 -84 67 -70 16 10 10 23 -18 36 -17 9 -27 20
-25 31 4 21 -16 23 -24 3z"/>
<path d="M477 1643 c-10 -9 -9 -23 2 -23 5 0 11 7 15 15 5 15 -5 20 -17 8z"/>
<path d="M570 1628 c0 -9 5 -20 10 -23 6 -4 8 -10 5 -15 -3 -5 0 -12 6 -16 9
-5 10 1 5 22 -9 35 -26 56 -26 32z"/>
<path d="M501 1613 c0 -10 3 -13 5 -6 3 7 13 9 22 6 15 -4 15 -3 2 6 -22 15
-30 14 -29 -6z"/>
<path d="M410 1593 c0 -7 11 -25 25 -40 32 -36 32 -17 0 22 -13 17 -24 25 -25
18z"/>
<path d="M404 1544 c3 -9 6 -22 6 -30 0 -16 35 -54 50 -54 5 0 -5 23 -22 50
-31 50 -46 65 -34 34z"/>
<path d="M492 1510 c2 -8 14 -19 26 -25 25 -11 28 -25 10 -43 -9 -9 -6 -12 15
-12 28 0 37 15 15 23 -9 3 -5 13 11 31 14 14 22 28 19 31 -3 3 -11 -1 -18 -10
-16 -20 -39 -19 -63 3 -16 13 -19 14 -15 2z"/>
<path d="M670 1416 c0 -26 -57 -73 -102 -83 l-43 -10 28 -11 c30 -13 70 0 95
31 20 23 43 87 32 87 -5 0 -10 -6 -10 -14z"/>
<path d="M429 1392 c10 -18 36 -43 61 -57 8 -5 -1 10 -20 33 -36 43 -58 56
-41 24z"/>
<path d="M543 1383 c9 -2 23 -2 30 0 6 3 -1 5 -18 5 -16 0 -22 -2 -12 -5z"/>
<path d="M689 1348 c-10 -24 -30 -41 -69 -60 -39 -20 -48 -28 -32 -28 47 0
112 50 127 98 10 34 -10 26 -26 -10z"/>
<path d="M406 1358 c27 -46 52 -69 83 -78 44 -12 53 -5 15 12 -16 7 -42 28
-59 46 -29 32 -53 44 -39 20z"/>
<path d="M710 1320 c0 -5 -14 -25 -30 -44 -29 -32 -67 -48 -128 -51 -12 0 -30
-9 -39 -18 -16 -16 -16 -17 10 -17 16 0 26 4 22 10 -3 6 3 10 14 10 11 0 22
-4 25 -9 7 -11 66 -20 66 -10 0 4 -9 11 -21 14 -13 5 -18 10 -12 16 6 6 20 5
37 -2 28 -13 50 -4 26 11 -12 8 -11 10 6 10 11 0 25 -5 32 -12 14 -14 16 1 2
22 -7 11 -3 20 13 33 17 15 18 18 4 13 -15 -5 -17 -2 -12 14 4 11 2 20 -4 20
-6 0 -11 -4 -11 -10z"/>
<path d="M953 1278 c-40 -28 -43 -44 -5 -25 15 8 40 17 55 21 15 4 25 11 22
16 -10 16 -38 11 -72 -12z"/>
<path d="M373 1266 c4 -10 7 -24 7 -31 0 -8 7 -11 20 -8 26 7 25 14 -7 37 -24
18 -26 18 -20 2z"/>
<path d="M445 1256 c-19 -16 -19 -16 10 -9 36 8 41 8 85 -1 25 -5 31 -4 19 3
-31 20 -93 23 -114 7z"/>
<path d="M925 1190 c11 -17 85 -51 103 -48 11 3 -1 14 -35 31 -55 28 -79 34
-68 17z"/>
<path d="M460 1175 c-14 -8 -20 -14 -14 -15 5 0 19 7 30 15 24 18 16 19 -16 0z"/>
<path d="M950 1124 c76 -35 100 -44 100 -33 0 12 -59 38 -103 45 l-32 5 35
-17z"/>
<path d="M715 1120 c-3 -5 -18 -10 -33 -10 -15 0 -34 -5 -42 -11 -23 -16 61
-3 96 16 26 13 27 15 7 15 -12 0 -25 -4 -28 -10z"/>
<path d="M1040 1074 c-14 -7 -38 -14 -55 -15 -21 -1 -24 -3 -10 -6 11 -3 24
-9 30 -14 15 -15 38 -11 31 7 -5 12 -1 14 15 9 15 -5 19 -4 15 4 -5 7 3 11 21
11 22 0 25 2 13 10 -19 12 -29 11 -60 -6z"/>
<path d="M5649 1354 c11 -20 29 -45 41 -56 21 -20 23 -20 61 -3 21 10 39 22
39 27 0 11 -14 10 -46 -4 -28 -13 -23 -17 -85 60 -21 26 -28 10 -10 -24z"/>
<path d="M1020 316 c-13 -18 -33 -37 -44 -42 -30 -14 -32 -34 -2 -34 18 0 30
9 41 30 16 31 35 40 35 17 0 -20 -30 -57 -46 -57 -9 0 -14 -6 -11 -12 2 -7 13
-12 23 -11 10 1 13 0 7 -3 -18 -8 -16 -24 1 -24 36 0 66 111 34 123 -10 4 -10
7 0 18 6 7 12 17 12 21 0 19 -27 5 -50 -26z"/>
<path d="M866 223 c-4 -9 -2 -21 4 -27 16 -16 12 -30 -5 -16 -9 7 -18 10 -22
6 -9 -9 37 -46 59 -46 19 0 24 15 8 25 -13 8 -3 25 13 25 8 0 8 -3 -1 -9 -10
-6 -10 -10 3 -21 10 -8 15 -9 16 -1 3 21 4 26 13 39 12 19 1 25 -22 13 -30
-16 -42 -13 -42 9 0 24 -15 26 -24 3z"/>
<path d="M980 120 c0 -5 7 -10 15 -10 8 0 15 5 15 10 0 6 -7 10 -15 10 -8 0
-15 -4 -15 -10z"/>
<path d="M862 108 c3 -7 16 -13 29 -14 14 0 29 -3 35 -6 11 -7 42 8 33 16 -2
3 -26 8 -53 11 -38 6 -47 4 -44 -7z"/>
<path d="M4266 249 c-4 -19 -13 -33 -26 -36 -27 -7 -26 -23 2 -23 21 0 21 0 2
-15 -17 -13 -17 -14 -2 -15 40 0 59 44 49 113 -3 19 -19 4 -25 -24z"/>
<path d="M5586 271 c5 -11 3 -13 -9 -8 -14 5 -16 2 -11 -17 3 -13 1 -27 -5
-31 -6 -3 -9 -11 -6 -16 3 -5 -1 -6 -9 -3 -9 3 -14 10 -11 14 3 4 -2 13 -10
20 -18 15 -19 11 -2 -27 16 -39 46 -30 63 18 12 33 13 33 13 7 1 -19 -8 -34
-29 -50 -34 -25 -37 -33 -13 -42 10 -4 28 2 45 14 36 27 38 7 3 -43 -13 -20
-20 -39 -15 -42 18 -11 50 58 50 110 l0 50 -31 -38 c-17 -20 -38 -37 -47 -36
-13 0 -13 2 3 9 47 19 64 68 34 101 -11 13 -17 18 -13 10z"/>
<path d="M2115 260 c-3 -5 -1 -10 4 -10 6 0 11 5 11 10 0 6 -2 10 -4 10 -3 0
-8 -4 -11 -10z"/>
<path d="M2281 261 c-9 -6 -10 -11 -2 -15 15 -10 14 -22 -6 -41 -16 -16 -17
-16 -25 5 -5 13 -11 20 -14 17 -4 -3 -3 -14 1 -24 5 -10 9 -21 9 -25 2 -11 16
-22 16 -12 0 5 9 10 21 10 19 0 19 -1 3 -13 -14 -10 -15 -13 -3 -13 8 0 21 6
29 12 12 11 12 10 0 -5 -9 -12 -22 -17 -38 -14 -21 4 -22 3 -9 -10 13 -13 18
-13 46 1 19 10 31 12 31 6 0 -19 -30 -70 -41 -70 -6 0 -8 -4 -4 -10 19 -31 63
43 60 103 -2 36 -15 67 -15 34 0 -9 -4 -17 -9 -17 -4 0 -6 11 -4 24 5 24 -11
66 -25 66 -4 0 -13 -4 -21 -9z m39 -45 c0 -15 -18 -31 -26 -23 -7 7 7 37 17
37 5 0 9 -6 9 -14z"/>
<path d="M5373 239 c-16 -20 35 -83 60 -74 21 9 13 23 -18 35 -13 5 -25 19
-27 31 -2 19 -5 20 -15 8z m57 -59 c0 -5 -5 -10 -11 -10 -5 0 -7 5 -4 10 3 6
8 10 11 10 2 0 4 -4 4 -10z"/>
<path d="M5415 239 c-4 -6 -5 -13 -2 -16 7 -7 27 6 27 18 0 12 -17 12 -25 -2z"/>
<path d="M2084 226 c-10 -27 44 -84 67 -70 17 10 9 25 -21 36 -24 8 -29 15
-25 29 7 22 -13 26 -21 5z"/>
<path d="M2137 233 c-10 -9 -9 -23 2 -23 5 0 11 7 15 15 5 15 -5 20 -17 8z"/>
<path d="M5446 221 c-4 -7 -5 -15 -2 -18 9 -9 19 4 14 18 -4 11 -6 11 -12 0z"/>
<path d="M2161 204 c0 -11 3 -14 6 -6 3 7 2 16 -1 19 -3 4 -6 -2 -5 -13z"/>
<path d="M5360 188 c0 -18 36 -66 43 -58 3 3 -6 21 -19 40 -14 20 -24 28 -24
18z"/>
<path d="M2070 183 c0 -7 11 -25 25 -40 32 -36 32 -17 0 22 -13 17 -24 25 -25
18z"/>
<path d="M5351 128 c10 -36 44 -76 55 -65 4 4 -2 17 -13 30 -11 12 -24 32 -28
45 -3 12 -10 22 -15 22 -5 0 -4 -14 1 -32z"/>
<path d="M2064 134 c3 -9 6 -22 6 -30 0 -16 35 -54 50 -54 5 0 -5 23 -22 50
-31 50 -46 65 -34 34z"/>
<path d="M5506 99 c-18 -17 -22 -18 -43 -4 -13 9 -23 11 -23 6 0 -5 9 -13 20
-16 23 -7 26 -25 8 -43 -9 -9 -5 -12 20 -12 34 0 43 14 16 24 -15 6 -14 9 6
31 28 29 24 41 -4 14z"/>
<path d="M2230 95 c-14 -17 -60 -21 -60 -5 0 6 -5 10 -11 10 -8 0 -8 -5 1 -15
7 -8 19 -15 26 -15 17 0 18 -22 2 -38 -9 -9 -6 -12 15 -12 15 0 27 5 27 10 0
6 -4 10 -10 10 -17 0 -11 18 12 40 12 11 19 22 16 25 -3 3 -11 -1 -18 -10z"/>
<path d="M4210 100 c0 -5 7 -10 16 -10 8 0 12 5 9 10 -3 6 -10 10 -16 10 -5 0
-9 -4 -9 -10z"/>
<path d="M4093 87 c2 -6 12 -12 23 -12 10 -1 24 -4 31 -8 13 -8 43 1 43 14 0
5 -8 10 -17 10 -10 1 -33 3 -51 5 -24 3 -32 0 -29 -9z"/>
<path d="M5617 23 c-4 -3 -7 -11 -7 -17 0 -6 5 -5 12 2 6 6 9 14 7 17 -3 3 -9
2 -12 -2z"/>
</g>
</svg>
